999
trimesh
0
SECTION
2
HEADER
9
$ACADVER
1
AC1014
9
$DWGCODEPAGE
3
ANSI_1252
9
$INSBASE
10
0
20
0
30
0
9
$EXTMIN
10
-24.9999997326
20
-24.9999997326
30
0
9
$EXTMAX
10
24.9999997326
20
24.9999997326
30
0
9
$LIMMIN
10
0
20
0
9
$LIMMAX
10
12
20
9
9
$ORTHOMODE
70
0
9
$REGENMODE
70
1
9
$FILLMODE
70
1
9
$QTEXTMODE
70
0
9
$MIRRTEXT
70
1
9
$LTSCALE
40
1
9
$ATTMODE
70
1
9
$TEXTSIZE
40
0.2
9
$TRACEWID
40
0.05
9
$TEXTSTYLE
7
STANDARD
9
$CLAYER
8
0
9
$CELTYPE
6
BYBLOCK
9
$CECOLOR
62
256
9
$CELTSCALE
40
1
9
$DISPSILH
70
0
9
$DIMSCALE
40
1
9
$DIMASZ
40
0.18
9
$DIMEXO
40
0.0625
9
$DIMDLI
40
0.38
9
$DIMRND
40
0
9
$DIMDLE
40
0
9
$DIMEXE
40
0.18
9
$DIMTP
40
0
9
$DIMTM
40
0
9
$DIMTXT
40
0.18
9
$DIMCEN
40
0.09
9
$DIMTSZ
40
0
9
$DIMTOL
70
0
9
$DIMLIM
70
0
9
$DIMTIH
70
1
9
$DIMTOH
70
1
9
$DIMSE1
70
0
9
$DIMSE2
70
0
9
$DIMTAD
70
0
9
$DIMZIN
70
0
9
$DIMASO
70
1
9
$DIMSHO
70
1
9
$DIMALT
70
0
9
$DIMALTD
70
2
9
$DIMALTF
40
25.4
9
$DIMLFAC
40
1
9
$DIMTOFL
70
0
9
$DIMTVP
40
0
9
$DIMTIX
70
0
9
$DIMSOXD
70
0
9
$DIMSAH
70
0
9
$DIMSTYLE
2
STANDARD
9
$DIMCLRD
70
0
9
$DIMCLRE
70
0
9
$DIMCLRT
70
0
9
$DIMTFAC
40
1
9
$DIMGAP
40
0.09
9
$DIMJUST
70
0
9
$DIMSD1
70
0
9
$DIMSD2
70
0
9
$DIMTOLJ
70
1
9
$DIMTZIN
70
0
9
$DIMALTZ
70
0
9
$DIMALTTZ
70
0
9
$DIMUPT
70
0
9
$DIMDEC
70
4
9
$DIMTDEC
70
4
9
$DIMALTU
70
2
9
$DIMALTTD
70
2
9
$DIMTXSTY
7
STANDARD
9
$DIMAUNIT
70
0
9
$DIMADEC
70
0
9
$DIMALTRND
40
0
9
$DIMAZIN
70
0
9
$DIMDSEP
70
44
9
$DIMATFIT
70
3
9
$DIMFRAC
70
0
9
$DIMLDRBLK
1
STANDARD
9
$DIMUNIT
70
2
9
$DIMLWD
70
-2
9
$DIMLWE
70
-2
9
$DIMTMOVE
70
0
9
$LUNITS
70
1
9
$LUPREC
70
4
9
$SKETCHINC
40
0.1
9
$FILLETRAD
40
0.5
9
$AUNITS
70
0
9
$AUPREC
70
0
9
$MENU
1
.
9
$ELEVATION
40
0
9
$PELEVATION
40
0
9
$THICKNESS
40
0
9
$LIMCHECK
70
0
9
$BLIPMODE
70
0
9
$CHAMFERA
40
0
9
$CHAMFERB
40
0
9
$CHAMFERC
40
0
9
$CHAMFERD
40
0
9
$SKPOLY
70
0
9
$USRTIMER
70
1
9
$ANGBASE
50
0
9
$ANGDIR
70
0
9
$PDMODE
70
0
9
$PDSIZE
40
0
9
$PLINEWID
40
0
9
$SPLFRAME
70
0
9
$SPLINETYPE
70
6
9
$SPLINESEGS
70
8
9
$HANDSEED
5
20000
9
$SURFTAB1
70
6
9
$SURFTAB2
70
6
9
$SURFTYPE
70
6
9
$SURFU
70
6
9
$SURFV
70
6
9
$UCSORG
10
0
20
0
30
0
9
$UCSXDIR
10
1
20
0
30
0
9
$UCSYDIR
10
0
20
1
30
0
9
$UCSORTHOVIEW
70
0
9
$UCSORGTOP
10
0
20
0
30
0
9
$UCSORGBOTTOM
10
0
20
0
30
0
9
$UCSORGLEFT
10
0
20
0
30
0
9
$UCSORGRIGHT
10
0
20
0
30
0
9
$UCSORGFRONT
10
0
20
0
30
0
9
$UCSORGBACK
10
0
20
0
30
0
9
$PUCSORG
10
0
20
0
30
0
9
$PUCSXDIR
10
1
20
0
30
0
9
$PUCSYDIR
10
0
20
1
30
0
9
$PUCSORTHOVIEW
70
0
9
$PUCSORGTOP
10
0
20
0
30
0
9
$PUCSORGBOTTOM
10
0
20
0
30
0
9
$PUCSORGLEFT
10
0
20
0
30
0
9
$PUCSORGRIGHT
10
0
20
0
30
0
9
$PUCSORGFRONT
10
0
20
0
30
0
9
$PUCSORGBACK
10
0
20
0
30
0
9
$USERI1
70
0
9
$USERI2
70
0
9
$USERI3
70
0
9
$USERI4
70
0
9
$USERI5
70
0
9
$USERR1
40
0
9
$USERR2
40
0
9
$USERR3
40
0
9
$USERR4
40
0
9
$USERR5
40
0
9
$WORLDVIEW
70
1
9
$SHADEDGE
70
3
9
$SHADEDIF
70
70
9
$TILEMODE
70
1
9
$MAXACTVP
70
64
9
$PINSBASE
10
0
20
0
30
0
9
$PLIMCHECK
70
0
9
$PEXTMIN
10
1e+20
20
1e+20
30
1e+20
9
$PEXTMAX
10
-1e+20
20
-1e+20
30
-1e+20
9
$GRIDMODE
70
0
9
$SNAPSTYLE
70
0
9
$PLIMMIN
10
0
20
0
9
$PLIMMAX
10
0
20
0
9
$UNITMODE
70
0
9
$VISRETAIN
70
1
9
$PLINEGEN
70
0
9
$PSLTSCALE
70
1
9
$TREEDEPTH
70
3020
9
$CMLSTYLE
2
STANDARD
9
$CMLJUST
70
0
9
$CMLSCALE
40
1
9
$PROXYGRAPHICS
70
1
9
$MEASUREMENT
70
0
9
$CELWEIGHT
370
-1
9
$ENDCAPS
280
0
9
$JOINSTYLE
280
0
9
$LWDISPLAY
290
0
9
$XEDIT
290
1
9
$CEPSNTYPE
380
0
9
$PSTYLEMODE
290
1
9
$EXTNAMES
290
1
9
$PSVPSCALE
40
1
9
$OLESTARTUP
290
0
0
ENDSEC
0
SECTION
2
CLASSES
0
ENDSEC
0
SECTION
2
TABLES
0
TABLE
2
VPORT
5
8
100
AcDbSymbolTable
70
1
0
VPORT
5
31
330
2
100
AcDbSymbolTableRecord
100
AcDbViewportTableRecord
2
*ACTIVE
70
0
10
0
20
0
11
1
21
1
12
354.791887455375
22
270.82508654025
13
0
23
0
14
10
24
10
15
10
25
10
16
0
26
0
36
1
17
0
27
0
37
0
40
650.7886407907502
41
1.281197063805759
42
50
43
0
44
0
50
0
51
0
71
0
72
100
73
1
74
3
75
0
76
0
77
0
78
0
0
ENDTAB
0
TABLE
2
LTYPE
5
5
100
AcDbSymbolTable
70
4
0
LTYPE
5
14
100
AcDbSymbolTableRecord
100
AcDbLinetypeTableRecord
2
ByBlock
70
0
72
65
73
0
40
0
0
LTYPE
5
15
100
AcDbSymbolTableRecord
100
AcDbLinetypeTableRecord
2
ByLayer
70
0
72
65
73
0
40
0
0
LTYPE
5
16
100
AcDbSymbolTableRecord
100
AcDbLinetypeTableRecord
2
Continuous
70
0
3
Solid line
72
65
73
0
40
0
0
LTYPE
5
32
330
5
100
AcDbSymbolTableRecord
100
AcDbLinetypeTableRecord
2
DOT
70
0
3
Dot . . . . . . . . . . . . . . . . . . . . . .
72
65
73
2
40
6.35
49
0
74
0
49
-6.35
74
0
0
LTYPE
5
33
330
5
100
AcDbSymbolTableRecord
100
AcDbLinetypeTableRecord
2
DOTTINY
70
0
3
Dot (.15x) .....................................
72
65
73
2
40
0.9525
49
0
74
0
49
-0.9525
74
0
0
LTYPE
5
34
330
5
100
AcDbSymbolTableRecord
100
AcDbLinetypeTableRecord
2
DOT2
70
0
3
Dot (.5x) .....................................
72
65
73
2
40
3.175
49
0
74
0
49
-3.175
74
0
0
LTYPE
5
35
330
5
100
AcDbSymbolTableRecord
100
AcDbLinetypeTableRecord
2
DOTX2
70
0
3
Dot (2x) .  .  .  .  .  .  .  .  .  .  .  .  .
72
65
73
2
40
12.7
49
0
74
0
49
-12.7
74
0
0
LTYPE
5
36
330
5
100
AcDbSymbolTableRecord
100
AcDbLinetypeTableRecord
2
DASHED
70
0
3
Dashed _ _ _ _ _ _ _ _ _ _ _ _ _ _ _ _ _
72
65
73
2
40
19.05
49
12.7
74
0
49
-6.35
74
0
0
LTYPE
5
37
330
5
100
AcDbSymbolTableRecord
100
AcDbLinetypeTableRecord
2
DASHEDTINY
70
0
3
Dashed (.15x) _ _ _ _ _ _ _ _ _ _ _ _ _ _ _ _ _
72
65
73
2
40
2.8575
49
1.905
74
0
49
-0.9525
74
0
0
LTYPE
5
38
330
5
100
AcDbSymbolTableRecord
100
AcDbLinetypeTableRecord
2
DASHED2
70
0
3
Dashed (.5x) _ _ _ _ _ _ _ _ _ _ _ _ _ _ _ _ _
72
65
73
2
40
9.524999999999999
49
6.35
74
0
49
-3.175
74
0
0
LTYPE
5
39
330
5
100
AcDbSymbolTableRecord
100
AcDbLinetypeTableRecord
2
DASHEDX2
70
0
3
Dashed (2x) ____  ____  ____  ____  ____  ___
72
65
73
2
40
38.09999999999999
49
25.4
74
0
49
-12.7
74
0
0
LTYPE
5
3A
330
5
100
AcDbSymbolTableRecord
100
AcDbLinetypeTableRecord
2
DASHDOT
70
0
3
Dash dot __ . __ . __ . __ . __ . __ . __ . __
72
65
73
4
40
25.4
49
12.7
74
0
49
-6.35
74
0
49
0
74
0
49
-6.35
74
0
0
LTYPE
5
3B
330
5
100
AcDbSymbolTableRecord
100
AcDbLinetypeTableRecord
2
DASHDOTTINY
70
0
3
Dash dot (.15x) _._._._._._._._._._._._._._._.
72
65
73
4
40
3.81
49
1.905
74
0
49
-0.9525
74
0
49
0
74
0
49
-0.9525
74
0
0
LTYPE
5
3C
330
5
100
AcDbSymbolTableRecord
100
AcDbLinetypeTableRecord
2
DASHDOT2
70
0
3
Dash dot (.5x) _._._._._._._._._._._._._._._.
72
65
73
4
40
12.7
49
6.35
74
0
49
-3.175
74
0
49
0
74
0
49
-3.175
74
0
0
LTYPE
5
3D
330
5
100
AcDbSymbolTableRecord
100
AcDbLinetypeTableRecord
2
DASHDOTX2
70
0
3
Dash dot (2x) ____  .  ____  .  ____  .  ___
72
65
73
4
40
50.8
49
25.4
74
0
49
-12.7
74
0
49
0
74
0
49
-12.7
74
0
0
LTYPE
5
3E
330
5
100
AcDbSymbolTableRecord
100
AcDbLinetypeTableRecord
2
DIVIDE
70
0
3
Divide ____ . . ____ . . ____ . . ____ . . ____
72
65
73
6
40
31.75
49
12.7
74
0
49
-6.35
74
0
49
0
74
0
49
-6.35
74
0
49
0
74
0
49
-6.35
74
0
0
LTYPE
5
3F
330
5
100
AcDbSymbolTableRecord
100
AcDbLinetypeTableRecord
2
DIVIDETINY
70
0
3
Divide (.15x) __..__..__..__..__..__..__..__.._
72
65
73
6
40
4.7625
49
1.905
74
0
49
-0.9525
74
0
49
0
74
0
49
-0.9525
74
0
49
0
74
0
49
-0.9525
74
0
0
LTYPE
5
40
330
5
100
AcDbSymbolTableRecord
100
AcDbLinetypeTableRecord
2
DIVIDE2
70
0
3
Divide (.5x) __..__..__..__..__..__..__..__.._
72
65
73
6
40
15.875
49
6.35
74
0
49
-3.175
74
0
49
0
74
0
49
-3.175
74
0
49
0
74
0
49
-3.175
74
0
0
LTYPE
5
41
330
5
100
AcDbSymbolTableRecord
100
AcDbLinetypeTableRecord
2
DIVIDEX2
70
0
3
Divide (2x) ________  .  .  ________  .  .  _
72
65
73
6
40
63.5
49
25.4
74
0
49
-12.7
74
0
49
0
74
0
49
-12.7
74
0
49
0
74
0
49
-12.7
74
0
0
LTYPE
5
42
330
5
100
AcDbSymbolTableRecord
100
AcDbLinetypeTableRecord
2
BORDER
70
0
3
Border __ __ . __ __ . __ __ . __ __ . __ __ .
72
65
73
6
40
44.45
49
12.7
74
0
49
-6.35
74
0
49
12.7
74
0
49
-6.35
74
0
49
0
74
0
49
-6.35
74
0
0
LTYPE
5
43
330
5
100
AcDbSymbolTableRecord
100
AcDbLinetypeTableRecord
2
BORDERTINY
70
0
3
Border (.15x) __.__.__.__.__.__.__.__.__.__.__.
72
65
73
6
40
6.6675
49
1.905
74
0
49
-0.9525
74
0
49
1.905
74
0
49
-0.9525
74
0
49
0
74
0
49
-0.9525
74
0
0
LTYPE
5
44
330
5
100
AcDbSymbolTableRecord
100
AcDbLinetypeTableRecord
2
BORDER2
70
0
3
Border (.5x) __.__.__.__.__.__.__.__.__.__.__.
72
65
73
6
40
22.225
49
6.35
74
0
49
-3.175
74
0
49
6.35
74
0
49
-3.175
74
0
49
0
74
0
49
-3.175
74
0
0
LTYPE
5
45
330
5
100
AcDbSymbolTableRecord
100
AcDbLinetypeTableRecord
2
BORDERX2
70
0
3
Border (2x) ____  ____  .  ____  ____  .  ___
72
65
73
6
40
88.89999999999999
49
25.4
74
0
49
-12.7
74
0
49
25.4
74
0
49
-12.7
74
0
49
0
74
0
49
-12.7
74
0
0
LTYPE
5
46
330
5
100
AcDbSymbolTableRecord
100
AcDbLinetypeTableRecord
2
CENTER
70
0
3
Center ____ _ ____ _ ____ _ ____ _ ____ _ ____
72
65
73
4
40
50.8
49
31.75
74
0
49
-6.35
74
0
49
6.35
74
0
49
-6.35
74
0
0
LTYPE
5
47
330
5
100
AcDbSymbolTableRecord
100
AcDbLinetypeTableRecord
2
CENTERTINY
70
0
3
Center (.15x) ___ _ ___ _ ___ _ ___ _ ___ _ ___
72
65
73
4
40
7.619999999999999
49
4.7625
74
0
49
-0.9525
74
0
49
0.9525
74
0
49
-0.9525
74
0
0
LTYPE
5
48
330
5
100
AcDbSymbolTableRecord
100
AcDbLinetypeTableRecord
2
CENTER2
70
0
3
Center (.5x) ___ _ ___ _ ___ _ ___ _ ___ _ ___
72
65
73
4
40
28.575
49
19.05
74
0
49
-3.175
74
0
49
3.175
74
0
49
-3.175
74
0
0
LTYPE
5
49
330
5
100
AcDbSymbolTableRecord
100
AcDbLinetypeTableRecord
2
CENTERX2
70
0
3
Center (2x) ________  __  ________  __  _____
72
65
73
4
40
101.6
49
63.5
74
0
49
-12.7
74
0
49
12.7
74
0
49
-12.7
74
0
0
ENDTAB
0
TABLE
2
LAYER
5
2
100
AcDbSymbolTable
70
1
0
LAYER
5
10
330
2
100
AcDbSymbolTableRecord
100
AcDbLayerTableRecord
2
0
70
0
62
7
6
CONTINUOUS
370
0
390
F
0
LAYER
5
4A
330
2
100
AcDbSymbolTableRecord
100
AcDbLayerTableRecord
2
None
70
0
62
7
6
CONTINUOUS
370
-3
390
F
0
ENDTAB
0
TABLE
2
STYLE
5
3
100
AcDbSymbolTable
70
3
0
STYLE
5
4B
330
2
100
AcDbSymbolTableRecord
100
AcDbTextStyleTableRecord
2
Standard
70
0
40
0
41
1
50
0
71
0
42
1
3
txt
0
ENDTAB
0
TABLE
2
VIEW
5
6
100
AcDbSymbolTable
70
0
0
ENDTAB
0
TABLE
2
UCS
5
7
100
AcDbSymbolTable
70
0
0
ENDTAB
0
TABLE
2
APPID
5
9
100
AcDbSymbolTable
70
1
0
APPID
5
12
100
AcDbSymbolTableRecord
100
AcDbRegAppTableRecord
2
ACAD
70
0
0
APPID
5
4C
100
AcDbSymbolTableRecord
100
AcDbRegAppTableRecord
2
LibreCad
70
0
0
ENDTAB
0
TABLE
2
DIMSTYLE
5
A
100
AcDbSymbolTable
70
1
0
DIMSTYLE
105
4D
330
A
100
AcDbSymbolTableRecord
100
AcDbDimStyleTableRecord
2
Standard
70
0
40
1
41
0.18
42
0.0625
43
0.38
44
0.18
45
0
46
0
47
0
48
0
49
1
140
0.18
141
0.09
142
0
143
25.4
144
1
145
0
146
1
147
0.09
71
0
72
0
73
1
74
1
75
0
76
0
77
0
78
0
170
0
171
2
172
0
173
0
174
0
175
0
176
0
177
0
178
0
270
2
271
4
272
4
273
2
274
2
275
0
280
0
281
0
282
0
283
1
284
0
285
0
286
0
287
3
288
0
340
STANDARD
0
ENDTAB
0
TABLE
2
BLOCK_RECORD
5
1
100
AcDbSymbolTable
70
2
0
BLOCK_RECORD
5
1F
100
AcDbSymbolTableRecord
100
AcDbBlockTableRecord
2
*Model_Space
0
BLOCK_RECORD
5
1E
100
AcDbSymbolTableRecord
100
AcDbBlockTableRecord
2
*Paper_Space
0
ENDTAB
0
ENDSEC
0
SECTION
2
BLOCKS
0
BLOCK
5
20
100
AcDbEntity
8
0
100
AcDbBlockBegin
2
*Model_Space
70
0
10
0
20
0
30
0
3
*Model_Space
0
ENDBLK
5
21
100
AcDbEntity
8
0
100
AcDbBlockEnd
0
BLOCK
5
1C
100
AcDbEntity
8
0
100
AcDbBlockBegin
2
*Paper_Space
70
0
10
0
20
0
30
0
3
*Paper_Space
0
ENDBLK
5
1D
100
AcDbEntity
8
0
100
AcDbBlockEnd
0
ENDSEC
0
SECTION
2
ENTITIES
0
LWPOLYLINE
5
139736312888784
330
1F
100
AcDbEntity
8
None
62
255
100
AcDbPolyline
90
105
70
1
43
0.0
10
4.87725192706
20
24.5196013329
10
6.47047203932
20
24.1481018562
10
8.03598216139
20
23.6733023774
10
9.56708234224
20
23.0970028824
10
11.0571925495
20
22.421803376
10
12.4999927859
20
21.6506038561
10
13.8892930479
20
20.786704323
10
15.2189933534
20
19.8338047631
10
16.483593678
20
18.7960051882
10
17.6776940202
20
17.6777056002
10
18.7959944096
20
16.4836059693
10
19.8337948126
20
15.219006321
10
20.7866952314
20
13.8893066543
10
21.6505956805
20
12.5000069465
10
22.4217961441
20
11.0572072138
10
23.096996623
20
9.56709745284
10
23.6732971145
20
8.03599766613
10
24.1480976276
20
6.47048782238
10
24.5195981419
20
4.87726796848
10
24.7860986676
20
3.26315806968
10
24.9464991972
20
1.63508814831
10
24.9465002678
20
1.63507181662
10
24.9999997326
20
8.17346552901e-06
10
24.9465002678
20
-1.63507181662
10
24.9464991972
20
-1.63508814831
10
24.7861008019
20
-3.26314186048
10
24.5196013329
20
-4.87725192706
10
24.1481018562
20
-6.47047203932
10
23.6733023774
20
-8.03598216139
10
23.0970028824
20
-9.56708234224
10
22.421803376
20
-11.0571925495
10
21.6506038561
20
-12.4999927859
10
20.786704323
20
-13.8892930479
10
19.8338047631
20
-15.2189933534
10
18.7960051882
20
-16.483593678
10
17.6777056002
20
-17.6776940202
10
16.4836059693
20
-18.7959944096
10
15.219006321
20
-19.8337948126
10
13.8893066543
20
-20.7866952314
10
12.5000069465
20
-21.6505956805
10
11.0572072138
20
-22.4217961441
10
9.56709745284
20
-23.096996623
10
8.03599766613
20
-23.6732971145
10
6.47048782238
20
-24.1480976276
10
4.87726796848
20
-24.5195981419
10
3.26315806968
20
-24.7860986676
10
1.63508814831
20
-24.9464991972
10
1.63507181662
20
-24.9465002678
10
8.17346552901e-06
20
-24.9999997326
10
-1.63507181662
20
-24.9465002678
10
-1.63508814831
20
-24.9464991972
10
-3.26314186048
20
-24.7861008019
10
-4.87725192706
20
-24.5196013329
10
-6.47047203932
20
-24.1481018562
10
-8.03598216139
20
-23.6733023774
10
-9.56708234224
20
-23.0970028824
10
-11.0571925495
20
-22.421803376
10
-12.4999927859
20
-21.6506038561
10
-13.8892930479
20
-20.786704323
10
-15.2189933534
20
-19.8338047631
10
-16.483593678
20
-18.7960051882
10
-17.6776940202
20
-17.6777056002
10
-18.7959944096
20
-16.4836059693
10
-19.8337948126
20
-15.219006321
10
-20.7866952314
20
-13.8893066543
10
-21.6505956805
20
-12.5000069465
10
-22.4217961441
20
-11.0572072138
10
-23.096996623
20
-9.56709745284
10
-23.6732971145
20
-8.03599766613
10
-24.1480976276
20
-6.47048782238
10
-24.5195981419
20
-4.87726796848
10
-24.7860986676
20
-3.26315806968
10
-24.9464991972
20
-1.63508814831
10
-24.9465002678
20
-1.63507181662
10
-24.9999997326
20
-8.17346552901e-06
10
-24.9465002678
20
1.63507181662
10
-24.9464991972
20
1.63508814831
10
-24.7861008019
20
3.26314186048
10
-24.5196013329
20
4.87725192706
10
-24.1481018562
20
6.47047203932
10
-23.6733023774
20
8.03598216139
10
-23.0970028824
20
9.56708234224
10
-22.421803376
20
11.0571925495
10
-21.6506038561
20
12.4999927859
10
-20.786704323
20
13.8892930479
10
-19.8338047631
20
15.2189933534
10
-18.7960051882
20
16.483593678
10
-17.6777056002
20
17.6776940202
10
-16.4836059693
20
18.7959944096
10
-15.219006321
20
19.8337948126
10
-13.8893066543
20
20.7866952314
10
-12.5000069465
20
21.6505956805
10
-11.0572072138
20
22.4217961441
10
-9.56709745284
20
23.096996623
10
-8.03599766613
20
23.6732971145
10
-6.47048782238
20
24.1480976276
10
-4.87726796848
20
24.5195981419
10
-3.26315806968
20
24.7860986676
10
-1.63508814831
20
24.9464991972
10
-1.63507181662
20
24.9465002678
10
-8.17346552901e-06
20
24.9999997326
10
1.63507181662
20
24.9465002678
10
1.63508814831
20
24.9464991972
10
3.26314186048
20
24.7861008019
10
4.87725192706
20
24.5196013329
0
LWPOLYLINE
5
139736281298192
330
1F
100
AcDbEntity
8
None
62
255
100
AcDbPolyline
90
21
70
1
43
0.0
10
18.7641559982
20
1.05166400184
10
18.4017705561
20
1.23633405028
10
18.0000782256
20
1.29998760893
10
17.5983782116
20
1.23638238886
10
17.235970562
20
1.05175595272
10
16.9483559779
20
0.764175977907
10
16.7636359801
20
0.401792596133
10
16.7000123782
20
7.8185435363e-05
10
16.7635876098
20
-0.401643738505
10
16.9482640524
20
-0.76404946758
10
17.2358440018
20
-1.05166400184
10
17.5982294439
20
-1.23633405028
10
17.9999217744
20
-1.29998760893
10
18.4016217884
20
-1.23638238886
10
18.764029438
20
-1.05175595272
10
19.0516440221
20
-0.764175977907
10
19.2363640199
20
-0.401792596133
10
19.2999876218
20
-7.8185435363e-05
10
19.2364123902
20
0.401643738505
10
19.0517359476
20
0.76404946758
10
18.7641559982
20
1.05166400184
0
LWPOLYLINE
5
139736280770000
330
1F
100
AcDbEntity
8
None
62
255
100
AcDbPolyline
90
65
70
1
43
0.0
10
2.48072463647
20
3.23288839483
10
2.03752724897
20
3.52903179262
10
2.03747060759
20
3.52906449486
10
1.55945939123
20
3.76479550573
10
1.05472103435
20
3.93613946502
10
0.531926142774
20
4.04013360644
10
3.26995335023e-05
20
4.07499785689
10
-0.531861297679
20
4.04014214329
10
-1.05465785601
20
3.9361563938
10
-1.55939896838
20
3.76482053405
10
-2.03747060759
20
3.52906449486
10
-2.03752724897
20
3.52903179262
10
-2.48067275453
20
3.23292820504
10
-2.88143535692
20
2.88148161097
10
-3.23288839483
20
2.48072463647
10
-3.52903179262
20
2.03752724897
10
-3.52906449486
20
2.03747060759
10
-3.76479550573
20
1.55945939123
10
-3.93613946502
20
1.05472103435
10
-4.04013360644
20
0.531926142774
10
-4.07499785689
20
3.26995335023e-05
10
-4.04014214329
20
-0.531861297679
10
-3.9361563938
20
-1.05465785601
10
-3.76482053405
20
-1.55939896838
10
-3.52906449486
20
-2.03747060759
10
-3.52903179262
20
-2.03752724897
10
-3.23292820504
20
-2.48067275453
10
-2.88148161097
20
-2.88143535692
10
-2.48072463647
20
-3.23288839483
10
-2.03752724897
20
-3.52903179262
10
-2.03747060759
20
-3.52906449486
10
-1.55945939123
20
-3.76479550573
10
-1.05472103435
20
-3.93613946502
10
-0.531926142774
20
-4.04013360644
10
-3.26995335023e-05
20
-4.07499785689
10
0.531861297679
20
-4.04014214329
10
1.05465785601
20
-3.9361563938
10
1.55939896838
20
-3.76482053405
10
2.03747060759
20
-3.52906449486
10
2.03752724897
20
-3.52903179262
10
2.48067275453
20
-3.23292820504
10
2.88143535692
20
-2.88148161097
10
3.23288839483
20
-2.48072463647
10
3.52903179262
20
-2.03752724897
10
3.52906449486
20
-2.03747060759
10
3.7647955037
20
-1.55945939533
10
3.87446999593
20
-1.23637001198
10
3.93613944136
20
-1.05472110073
10
3.93673998903
20
-1.05172005523
10
3.99393999734
20
-0.764120013394
10
4.04013360335
20
-0.531926152984
10
4.04866999977
20
-0.401722003525
10
4.07499785667
20
-3.27012542505e-05
10
4.04867000023
20
0.401721996493
10
4.04014214363
20
0.531861287062
10
3.99394000266
20
0.76411998661
10
3.93674001098
20
1.05171994477
10
3.93615639955
20
1.05465778532
10
3.87447000407
20
1.23636998802
10
3.76482053496
20
1.55939896385
10
3.52906449486
20
2.03747060759
10
3.52903179262
20
2.03752724897
10
3.23292820504
20
2.48067275453
10
2.88148161097
20
2.88143535692
10
2.48072463647
20
3.23288839483
0
LWPOLYLINE
5
139736280768400
330
1F
100
AcDbEntity
8
None
62
255
100
AcDbPolyline
90
24
70
1
43
0.0
10
-10.2715716061
20
-15.3181260551
10
-10.2928958508
20
-15.7242208918
10
-10.1876204966
20
-16.1171235222
10
-9.96613312219
20
-16.4582335968
10
-9.65006158182
20
-16.7142501251
10
-9.2703538949
20
-16.8599716462
10
-8.86418905
20
-16.8812958545
10
-8.47131657899
20
-16.7761205058
10
-8.13019634529
20
-16.5545431008
10
-8.13011519224
20
-16.5544773753
10
-7.87421987803
20
-16.2385615778
10
-7.87416290561
20
-16.23847386
10
-7.72843836632
20
-15.8587739128
10
-7.70712414601
20
-15.4526790837
10
-7.81236950275
20
-15.059776502
10
-8.03386687932
20
-14.7186663979
10
-8.34993841993
20
-14.4626498734
10
-8.72963610293
20
-14.3169283553
10
-9.13581095033
20
-14.2956041453
10
-9.52868342101
20
-14.4007794942
10
-9.86980360914
20
-14.6223568696
10
-10.1257501982
20
-14.9384384897
10
-10.1258070927
20
-14.9385261031
10
-10.2715716061
20
-15.3181260551
0
LWPOLYLINE
5
139736280764176
330
1F
100
AcDbEntity
8
None
62
255
100
AcDbPolyline
90
24
70
1
43
0.0
10
-8.13008020253
20
16.5544385216
10
-8.13015404813
20
16.5545123626
10
-8.47117351996
20
16.7760568117
10
-8.86403353528
20
16.8812795248
10
-9.2702009607
20
16.8600041449
10
-9.64992601414
20
16.7143283887
10
-9.96602847171
20
16.4583498315
10
-10.1875568776
20
16.1172664035
10
-10.292879493
20
15.7243765165
10
-10.2716041488
20
15.3182791002
10
-10.1258283705
20
14.938573884
10
-10.1257809399
20
14.9384808064
10
-9.86991981863
20
14.6224615312
10
-9.52882648004
20
14.4008431883
10
-9.1359664644
20
14.2956204751
10
-8.72978904189
20
14.3168958551
10
-8.3500739835
20
14.4625716115
10
-8.03397152419
20
14.7185501718
10
-7.81243313658
20
15.0596335776
10
-7.70714049517
20
15.4525235057
10
-7.72840585521
20
15.8586209394
10
-7.87414160677
20
16.2384260171
10
-7.87418909178
20
16.2385192128
10
-8.13008020253
20
16.5544385216
0
ENDSEC
0
SECTION
2
OBJECTS
0
DICTIONARY
5
C
100
AcDbDictionary
281
1
3
ACAD_GROUP
350
D
0
DICTIONARY
5
D
330
C
100
AcDbDictionary
281
1
0
ENDSEC
0
EOF