999
trimesh
0
SECTION
2
HEADER
9
$ACADVER
1
AC1014
9
$DWGCODEPAGE
3
ANSI_1252
9
$INSBASE
10
0
20
0
30
0
9
$EXTMIN
10
-89.9999990362
20
-89.9999990362
30
0
9
$EXTMAX
10
89.9999990362
20
89.9999990362
30
0
9
$LIMMIN
10
0
20
0
9
$LIMMAX
10
12
20
9
9
$ORTHOMODE
70
0
9
$REGENMODE
70
1
9
$FILLMODE
70
1
9
$QTEXTMODE
70
0
9
$MIRRTEXT
70
1
9
$LTSCALE
40
1
9
$ATTMODE
70
1
9
$TEXTSIZE
40
0.2
9
$TRACEWID
40
0.05
9
$TEXTSTYLE
7
STANDARD
9
$CLAYER
8
0
9
$CELTYPE
6
BYBLOCK
9
$CECOLOR
62
256
9
$CELTSCALE
40
1
9
$DISPSILH
70
0
9
$DIMSCALE
40
1
9
$DIMASZ
40
0.18
9
$DIMEXO
40
0.0625
9
$DIMDLI
40
0.38
9
$DIMRND
40
0
9
$DIMDLE
40
0
9
$DIMEXE
40
0.18
9
$DIMTP
40
0
9
$DIMTM
40
0
9
$DIMTXT
40
0.18
9
$DIMCEN
40
0.09
9
$DIMTSZ
40
0
9
$DIMTOL
70
0
9
$DIMLIM
70
0
9
$DIMTIH
70
1
9
$DIMTOH
70
1
9
$DIMSE1
70
0
9
$DIMSE2
70
0
9
$DIMTAD
70
0
9
$DIMZIN
70
0
9
$DIMASO
70
1
9
$DIMSHO
70
1
9
$DIMALT
70
0
9
$DIMALTD
70
2
9
$DIMALTF
40
25.4
9
$DIMLFAC
40
1
9
$DIMTOFL
70
0
9
$DIMTVP
40
0
9
$DIMTIX
70
0
9
$DIMSOXD
70
0
9
$DIMSAH
70
0
9
$DIMSTYLE
2
STANDARD
9
$DIMCLRD
70
0
9
$DIMCLRE
70
0
9
$DIMCLRT
70
0
9
$DIMTFAC
40
1
9
$DIMGAP
40
0.09
9
$DIMJUST
70
0
9
$DIMSD1
70
0
9
$DIMSD2
70
0
9
$DIMTOLJ
70
1
9
$DIMTZIN
70
0
9
$DIMALTZ
70
0
9
$DIMALTTZ
70
0
9
$DIMUPT
70
0
9
$DIMDEC
70
4
9
$DIMTDEC
70
4
9
$DIMALTU
70
2
9
$DIMALTTD
70
2
9
$DIMTXSTY
7
STANDARD
9
$DIMAUNIT
70
0
9
$DIMADEC
70
0
9
$DIMALTRND
40
0
9
$DIMAZIN
70
0
9
$DIMDSEP
70
44
9
$DIMATFIT
70
3
9
$DIMFRAC
70
0
9
$DIMLDRBLK
1
STANDARD
9
$DIMUNIT
70
2
9
$DIMLWD
70
-2
9
$DIMLWE
70
-2
9
$DIMTMOVE
70
0
9
$LUNITS
70
1
9
$LUPREC
70
4
9
$SKETCHINC
40
0.1
9
$FILLETRAD
40
0.5
9
$AUNITS
70
0
9
$AUPREC
70
0
9
$MENU
1
.
9
$ELEVATION
40
0
9
$PELEVATION
40
0
9
$THICKNESS
40
0
9
$LIMCHECK
70
0
9
$BLIPMODE
70
0
9
$CHAMFERA
40
0
9
$CHAMFERB
40
0
9
$CHAMFERC
40
0
9
$CHAMFERD
40
0
9
$SKPOLY
70
0
9
$USRTIMER
70
1
9
$ANGBASE
50
0
9
$ANGDIR
70
0
9
$PDMODE
70
0
9
$PDSIZE
40
0
9
$PLINEWID
40
0
9
$SPLFRAME
70
0
9
$SPLINETYPE
70
6
9
$SPLINESEGS
70
8
9
$HANDSEED
5
20000
9
$SURFTAB1
70
6
9
$SURFTAB2
70
6
9
$SURFTYPE
70
6
9
$SURFU
70
6
9
$SURFV
70
6
9
$UCSORG
10
0
20
0
30
0
9
$UCSXDIR
10
1
20
0
30
0
9
$UCSYDIR
10
0
20
1
30
0
9
$UCSORTHOVIEW
70
0
9
$UCSORGTOP
10
0
20
0
30
0
9
$UCSORGBOTTOM
10
0
20
0
30
0
9
$UCSORGLEFT
10
0
20
0
30
0
9
$UCSORGRIGHT
10
0
20
0
30
0
9
$UCSORGFRONT
10
0
20
0
30
0
9
$UCSORGBACK
10
0
20
0
30
0
9
$PUCSORG
10
0
20
0
30
0
9
$PUCSXDIR
10
1
20
0
30
0
9
$PUCSYDIR
10
0
20
1
30
0
9
$PUCSORTHOVIEW
70
0
9
$PUCSORGTOP
10
0
20
0
30
0
9
$PUCSORGBOTTOM
10
0
20
0
30
0
9
$PUCSORGLEFT
10
0
20
0
30
0
9
$PUCSORGRIGHT
10
0
20
0
30
0
9
$PUCSORGFRONT
10
0
20
0
30
0
9
$PUCSORGBACK
10
0
20
0
30
0
9
$USERI1
70
0
9
$USERI2
70
0
9
$USERI3
70
0
9
$USERI4
70
0
9
$USERI5
70
0
9
$USERR1
40
0
9
$USERR2
40
0
9
$USERR3
40
0
9
$USERR4
40
0
9
$USERR5
40
0
9
$WORLDVIEW
70
1
9
$SHADEDGE
70
3
9
$SHADEDIF
70
70
9
$TILEMODE
70
1
9
$MAXACTVP
70
64
9
$PINSBASE
10
0
20
0
30
0
9
$PLIMCHECK
70
0
9
$PEXTMIN
10
1e+20
20
1e+20
30
1e+20
9
$PEXTMAX
10
-1e+20
20
-1e+20
30
-1e+20
9
$GRIDMODE
70
0
9
$SNAPSTYLE
70
0
9
$PLIMMIN
10
0
20
0
9
$PLIMMAX
10
0
20
0
9
$UNITMODE
70
0
9
$VISRETAIN
70
1
9
$PLINEGEN
70
0
9
$PSLTSCALE
70
1
9
$TREEDEPTH
70
3020
9
$CMLSTYLE
2
STANDARD
9
$CMLJUST
70
0
9
$CMLSCALE
40
1
9
$PROXYGRAPHICS
70
1
9
$MEASUREMENT
70
0
9
$CELWEIGHT
370
-1
9
$ENDCAPS
280
0
9
$JOINSTYLE
280
0
9
$LWDISPLAY
290
0
9
$XEDIT
290
1
9
$CEPSNTYPE
380
0
9
$PSTYLEMODE
290
1
9
$EXTNAMES
290
1
9
$PSVPSCALE
40
1
9
$OLESTARTUP
290
0
0
ENDSEC
0
SECTION
2
CLASSES
0
ENDSEC
0
SECTION
2
TABLES
0
TABLE
2
VPORT
5
8
100
AcDbSymbolTable
70
1
0
VPORT
5
31
330
2
100
AcDbSymbolTableRecord
100
AcDbViewportTableRecord
2
*ACTIVE
70
0
10
0
20
0
11
1
21
1
12
354.791887455375
22
270.82508654025
13
0
23
0
14
10
24
10
15
10
25
10
16
0
26
0
36
1
17
0
27
0
37
0
40
650.7886407907502
41
1.281197063805759
42
50
43
0
44
0
50
0
51
0
71
0
72
100
73
1
74
3
75
0
76
0
77
0
78
0
0
ENDTAB
0
TABLE
2
LTYPE
5
5
100
AcDbSymbolTable
70
4
0
LTYPE
5
14
100
AcDbSymbolTableRecord
100
AcDbLinetypeTableRecord
2
ByBlock
70
0
72
65
73
0
40
0
0
LTYPE
5
15
100
AcDbSymbolTableRecord
100
AcDbLinetypeTableRecord
2
ByLayer
70
0
72
65
73
0
40
0
0
LTYPE
5
16
100
AcDbSymbolTableRecord
100
AcDbLinetypeTableRecord
2
Continuous
70
0
3
Solid line
72
65
73
0
40
0
0
LTYPE
5
32
330
5
100
AcDbSymbolTableRecord
100
AcDbLinetypeTableRecord
2
DOT
70
0
3
Dot . . . . . . . . . . . . . . . . . . . . . .
72
65
73
2
40
6.35
49
0
74
0
49
-6.35
74
0
0
LTYPE
5
33
330
5
100
AcDbSymbolTableRecord
100
AcDbLinetypeTableRecord
2
DOTTINY
70
0
3
Dot (.15x) .....................................
72
65
73
2
40
0.9525
49
0
74
0
49
-0.9525
74
0
0
LTYPE
5
34
330
5
100
AcDbSymbolTableRecord
100
AcDbLinetypeTableRecord
2
DOT2
70
0
3
Dot (.5x) .....................................
72
65
73
2
40
3.175
49
0
74
0
49
-3.175
74
0
0
LTYPE
5
35
330
5
100
AcDbSymbolTableRecord
100
AcDbLinetypeTableRecord
2
DOTX2
70
0
3
Dot (2x) .  .  .  .  .  .  .  .  .  .  .  .  .
72
65
73
2
40
12.7
49
0
74
0
49
-12.7
74
0
0
LTYPE
5
36
330
5
100
AcDbSymbolTableRecord
100
AcDbLinetypeTableRecord
2
DASHED
70
0
3
Dashed _ _ _ _ _ _ _ _ _ _ _ _ _ _ _ _ _
72
65
73
2
40
19.05
49
12.7
74
0
49
-6.35
74
0
0
LTYPE
5
37
330
5
100
AcDbSymbolTableRecord
100
AcDbLinetypeTableRecord
2
DASHEDTINY
70
0
3
Dashed (.15x) _ _ _ _ _ _ _ _ _ _ _ _ _ _ _ _ _
72
65
73
2
40
2.8575
49
1.905
74
0
49
-0.9525
74
0
0
LTYPE
5
38
330
5
100
AcDbSymbolTableRecord
100
AcDbLinetypeTableRecord
2
DASHED2
70
0
3
Dashed (.5x) _ _ _ _ _ _ _ _ _ _ _ _ _ _ _ _ _
72
65
73
2
40
9.524999999999999
49
6.35
74
0
49
-3.175
74
0
0
LTYPE
5
39
330
5
100
AcDbSymbolTableRecord
100
AcDbLinetypeTableRecord
2
DASHEDX2
70
0
3
Dashed (2x) ____  ____  ____  ____  ____  ___
72
65
73
2
40
38.09999999999999
49
25.4
74
0
49
-12.7
74
0
0
LTYPE
5
3A
330
5
100
AcDbSymbolTableRecord
100
AcDbLinetypeTableRecord
2
DASHDOT
70
0
3
Dash dot __ . __ . __ . __ . __ . __ . __ . __
72
65
73
4
40
25.4
49
12.7
74
0
49
-6.35
74
0
49
0
74
0
49
-6.35
74
0
0
LTYPE
5
3B
330
5
100
AcDbSymbolTableRecord
100
AcDbLinetypeTableRecord
2
DASHDOTTINY
70
0
3
Dash dot (.15x) _._._._._._._._._._._._._._._.
72
65
73
4
40
3.81
49
1.905
74
0
49
-0.9525
74
0
49
0
74
0
49
-0.9525
74
0
0
LTYPE
5
3C
330
5
100
AcDbSymbolTableRecord
100
AcDbLinetypeTableRecord
2
DASHDOT2
70
0
3
Dash dot (.5x) _._._._._._._._._._._._._._._.
72
65
73
4
40
12.7
49
6.35
74
0
49
-3.175
74
0
49
0
74
0
49
-3.175
74
0
0
LTYPE
5
3D
330
5
100
AcDbSymbolTableRecord
100
AcDbLinetypeTableRecord
2
DASHDOTX2
70
0
3
Dash dot (2x) ____  .  ____  .  ____  .  ___
72
65
73
4
40
50.8
49
25.4
74
0
49
-12.7
74
0
49
0
74
0
49
-12.7
74
0
0
LTYPE
5
3E
330
5
100
AcDbSymbolTableRecord
100
AcDbLinetypeTableRecord
2
DIVIDE
70
0
3
Divide ____ . . ____ . . ____ . . ____ . . ____
72
65
73
6
40
31.75
49
12.7
74
0
49
-6.35
74
0
49
0
74
0
49
-6.35
74
0
49
0
74
0
49
-6.35
74
0
0
LTYPE
5
3F
330
5
100
AcDbSymbolTableRecord
100
AcDbLinetypeTableRecord
2
DIVIDETINY
70
0
3
Divide (.15x) __..__..__..__..__..__..__..__.._
72
65
73
6
40
4.7625
49
1.905
74
0
49
-0.9525
74
0
49
0
74
0
49
-0.9525
74
0
49
0
74
0
49
-0.9525
74
0
0
LTYPE
5
40
330
5
100
AcDbSymbolTableRecord
100
AcDbLinetypeTableRecord
2
DIVIDE2
70
0
3
Divide (.5x) __..__..__..__..__..__..__..__.._
72
65
73
6
40
15.875
49
6.35
74
0
49
-3.175
74
0
49
0
74
0
49
-3.175
74
0
49
0
74
0
49
-3.175
74
0
0
LTYPE
5
41
330
5
100
AcDbSymbolTableRecord
100
AcDbLinetypeTableRecord
2
DIVIDEX2
70
0
3
Divide (2x) ________  .  .  ________  .  .  _
72
65
73
6
40
63.5
49
25.4
74
0
49
-12.7
74
0
49
0
74
0
49
-12.7
74
0
49
0
74
0
49
-12.7
74
0
0
LTYPE
5
42
330
5
100
AcDbSymbolTableRecord
100
AcDbLinetypeTableRecord
2
BORDER
70
0
3
Border __ __ . __ __ . __ __ . __ __ . __ __ .
72
65
73
6
40
44.45
49
12.7
74
0
49
-6.35
74
0
49
12.7
74
0
49
-6.35
74
0
49
0
74
0
49
-6.35
74
0
0
LTYPE
5
43
330
5
100
AcDbSymbolTableRecord
100
AcDbLinetypeTableRecord
2
BORDERTINY
70
0
3
Border (.15x) __.__.__.__.__.__.__.__.__.__.__.
72
65
73
6
40
6.6675
49
1.905
74
0
49
-0.9525
74
0
49
1.905
74
0
49
-0.9525
74
0
49
0
74
0
49
-0.9525
74
0
0
LTYPE
5
44
330
5
100
AcDbSymbolTableRecord
100
AcDbLinetypeTableRecord
2
BORDER2
70
0
3
Border (.5x) __.__.__.__.__.__.__.__.__.__.__.
72
65
73
6
40
22.225
49
6.35
74
0
49
-3.175
74
0
49
6.35
74
0
49
-3.175
74
0
49
0
74
0
49
-3.175
74
0
0
LTYPE
5
45
330
5
100
AcDbSymbolTableRecord
100
AcDbLinetypeTableRecord
2
BORDERX2
70
0
3
Border (2x) ____  ____  .  ____  ____  .  ___
72
65
73
6
40
88.89999999999999
49
25.4
74
0
49
-12.7
74
0
49
25.4
74
0
49
-12.7
74
0
49
0
74
0
49
-12.7
74
0
0
LTYPE
5
46
330
5
100
AcDbSymbolTableRecord
100
AcDbLinetypeTableRecord
2
CENTER
70
0
3
Center ____ _ ____ _ ____ _ ____ _ ____ _ ____
72
65
73
4
40
50.8
49
31.75
74
0
49
-6.35
74
0
49
6.35
74
0
49
-6.35
74
0
0
LTYPE
5
47
330
5
100
AcDbSymbolTableRecord
100
AcDbLinetypeTableRecord
2
CENTERTINY
70
0
3
Center (.15x) ___ _ ___ _ ___ _ ___ _ ___ _ ___
72
65
73
4
40
7.619999999999999
49
4.7625
74
0
49
-0.9525
74
0
49
0.9525
74
0
49
-0.9525
74
0
0
LTYPE
5
48
330
5
100
AcDbSymbolTableRecord
100
AcDbLinetypeTableRecord
2
CENTER2
70
0
3
Center (.5x) ___ _ ___ _ ___ _ ___ _ ___ _ ___
72
65
73
4
40
28.575
49
19.05
74
0
49
-3.175
74
0
49
3.175
74
0
49
-3.175
74
0
0
LTYPE
5
49
330
5
100
AcDbSymbolTableRecord
100
AcDbLinetypeTableRecord
2
CENTERX2
70
0
3
Center (2x) ________  __  ________  __  _____
72
65
73
4
40
101.6
49
63.5
74
0
49
-12.7
74
0
49
12.7
74
0
49
-12.7
74
0
0
ENDTAB
0
TABLE
2
LAYER
5
2
100
AcDbSymbolTable
70
1
0
LAYER
5
10
330
2
100
AcDbSymbolTableRecord
100
AcDbLayerTableRecord
2
0
70
0
62
7
6
CONTINUOUS
370
0
390
F
0
LAYER
5
4A
330
2
100
AcDbSymbolTableRecord
100
AcDbLayerTableRecord
2
None
70
0
62
7
6
CONTINUOUS
370
-3
390
F
0
ENDTAB
0
TABLE
2
STYLE
5
3
100
AcDbSymbolTable
70
3
0
STYLE
5
4B
330
2
100
AcDbSymbolTableRecord
100
AcDbTextStyleTableRecord
2
Standard
70
0
40
0
41
1
50
0
71
0
42
1
3
txt
0
ENDTAB
0
TABLE
2
VIEW
5
6
100
AcDbSymbolTable
70
0
0
ENDTAB
0
TABLE
2
UCS
5
7
100
AcDbSymbolTable
70
0
0
ENDTAB
0
TABLE
2
APPID
5
9
100
AcDbSymbolTable
70
1
0
APPID
5
12
100
AcDbSymbolTableRecord
100
AcDbRegAppTableRecord
2
ACAD
70
0
0
APPID
5
4C
100
AcDbSymbolTableRecord
100
AcDbRegAppTableRecord
2
LibreCad
70
0
0
ENDTAB
0
TABLE
2
DIMSTYLE
5
A
100
AcDbSymbolTable
70
1
0
DIMSTYLE
105
4D
330
A
100
AcDbSymbolTableRecord
100
AcDbDimStyleTableRecord
2
Standard
70
0
40
1
41
0.18
42
0.0625
43
0.38
44
0.18
45
0
46
0
47
0
48
0
49
1
140
0.18
141
0.09
142
0
143
25.4
144
1
145
0
146
1
147
0.09
71
0
72
0
73
1
74
1
75
0
76
0
77
0
78
0
170
0
171
2
172
0
173
0
174
0
175
0
176
0
177
0
178
0
270
2
271
4
272
4
273
2
274
2
275
0
280
0
281
0
282
0
283
1
284
0
285
0
286
0
287
3
288
0
340
STANDARD
0
ENDTAB
0
TABLE
2
BLOCK_RECORD
5
1
100
AcDbSymbolTable
70
2
0
BLOCK_RECORD
5
1F
100
AcDbSymbolTableRecord
100
AcDbBlockTableRecord
2
*Model_Space
0
BLOCK_RECORD
5
1E
100
AcDbSymbolTableRecord
100
AcDbBlockTableRecord
2
*Paper_Space
0
ENDTAB
0
ENDSEC
0
SECTION
2
BLOCKS
0
BLOCK
5
20
100
AcDbEntity
8
0
100
AcDbBlockBegin
2
*Model_Space
70
0
10
0
20
0
30
0
3
*Model_Space
0
ENDBLK
5
21
100
AcDbEntity
8
0
100
AcDbBlockEnd
0
BLOCK
5
1C
100
AcDbEntity
8
0
100
AcDbBlockBegin
2
*Paper_Space
70
0
10
0
20
0
30
0
3
*Paper_Space
0
ENDBLK
5
1D
100
AcDbEntity
8
0
100
AcDbBlockEnd
0
ENDSEC
0
SECTION
2
ENTITIES
0
LWPOLYLINE
5
139736281311824
330
1F
100
AcDbEntity
8
None
62
255
100
AcDbPolyline
90
97
70
1
43
0.0
10
85.2237085502
20
-28.9295718132
10
83.1492103781
20
-34.4414724256
10
80.718512153
20
-39.8059731786
10
77.9423138862
20
-44.9999740203
10
74.8323155559
20
-50.0012749841
10
71.4018171548
20
-54.7884760608
10
67.6656186874
20
-59.3410772292
10
63.6396201341
20
-63.6395785031
10
59.3411214997
20
-67.6655798632
10
54.7885227661
20
-71.4017813164
10
50.0013239449
20
-74.8322828412
10
45.0000250158
20
-77.9422844442
10
39.8060259694
20
-80.7184861193
10
34.4415268364
20
-83.1491878402
10
28.9296275672
20
-85.2236896246
10
23.2937281813
20
-86.9332914514
10
17.5581286926
20
-88.2706933096
10
11.7474290557
20
-89.2299952031
10
5.88630931525
20
-89.8072971125
10
2.94397688072e-05
20
-89.9999990362
10
-5.88625055867
20
-89.8073009638
10
-11.7473706929
20
-89.2300028867
10
-17.5580709312
20
-88.270704799
10
-23.29367132
20
-86.9333066875
10
-28.9295718132
20
-85.2237085502
10
-34.4414724256
20
-83.1492103781
10
-39.8059731786
20
-80.718512153
10
-44.9999740203
20
-77.9423138862
10
-50.0012749841
20
-74.8323155559
10
-54.7884760608
20
-71.4018171548
10
-59.3410772292
20
-67.6656186874
10
-63.6395785031
20
-63.6396201341
10
-67.6655798632
20
-59.3411214997
10
-71.4017813164
20
-54.7885227661
10
-74.8322828412
20
-50.0013239449
10
-77.9422844442
20
-45.0000250158
10
-80.7184861193
20
-39.8060259694
10
-83.1491878402
20
-34.4415268364
10
-85.2236896246
20
-28.9296275672
10
-86.9332914514
20
-23.2937281813
10
-88.2706933096
20
-17.5581286926
10
-89.2299952031
20
-11.7474290557
10
-89.8072971125
20
-5.88630931525
10
-89.9999990362
20
-2.94397688072e-05
10
-89.8073009638
20
5.88625055867
10
-89.2300028867
20
11.7473706929
10
-88.270704799
20
17.5580709312
10
-86.9333066875
20
23.29367132
10
-85.2237085502
20
28.9295718132
10
-83.1492103781
20
34.4414724256
10
-80.718512153
20
39.8059731786
10
-77.9423138862
20
44.9999740203
10
-74.8323155559
20
50.0012749841
10
-71.4018171548
20
54.7884760608
10
-67.6656186874
20
59.3410772292
10
-63.6396201341
20
63.6395785031
10
-59.3411214997
20
67.6655798632
10
-54.7885227661
20
71.4017813164
10
-50.0013239449
20
74.8322828412
10
-45.0000250158
20
77.9422844442
10
-39.8060259694
20
80.7184861193
10
-34.4415268364
20
83.1491878402
10
-28.9296275672
20
85.2236896246
10
-23.2937281813
20
86.9332914514
10
-17.5581286926
20
88.2706933096
10
-11.7474290557
20
89.2299952031
10
-5.88630931525
20
89.8072971125
10
-2.94397688072e-05
20
89.9999990362
10
5.88625055867
20
89.8073009638
10
11.7473706929
20
89.2300028867
10
17.5580709312
20
88.270704799
10
23.29367132
20
86.9333066875
10
28.9295718132
20
85.2237085502
10
34.4414724256
20
83.1492103781
10
39.8059731786
20
80.718512153
10
44.9999740203
20
77.9423138862
10
50.0012749841
20
74.8323155559
10
54.7884760608
20
71.4018171548
10
59.3410772292
20
67.6656186874
10
63.6395785031
20
63.6396201341
10
67.6655798632
20
59.3411214997
10
71.4017813164
20
54.7885227661
10
74.8322828412
20
50.0013239449
10
77.9422844442
20
45.0000250158
10
80.7184861193
20
39.8060259694
10
83.1491878402
20
34.4415268364
10
85.2236896246
20
28.9296275672
10
86.9332914514
20
23.2937281813
10
88.2706933096
20
17.5581286926
10
89.2299952031
20
11.7474290557
10
89.8072971125
20
5.88630931525
10
89.9999990362
20
2.94397688072e-05
10
89.8073009638
20
-5.88625055867
10
89.2300028867
20
-11.7473706929
10
88.270704799
20
-17.5580709312
10
86.9333066875
20
-23.29367132
10
85.2237085502
20
-28.9295718132
0
LWPOLYLINE
5
139736550892048
330
1F
100
AcDbEntity
8
None
62
255
100
AcDbPolyline
90
30
70
1
43
0.0
10
74.0962552931
20
-40.9127390774
10
73.6829213831
20
-40.5779792378
10
73.2234002532
20
-40.4014000973
10
73.1864665795
20
-40.3872024755
10
72.6552848084
20
-40.3593149053
10
72.6549088867
20
-40.3593346485
10
72.5517001299
20
-40.3869999652
10
72.3981500522
20
-40.428149986
10
72.1415753099
20
-40.4969262017
10
71.7947001092
20
-40.7220999291
10
71.6954391853
20
-40.7865447098
10
71.3606794429
20
-41.1997784172
10
71.1842001584
20
-41.6592995873
10
71.17000248
20
-41.6962334087
10
71.1637000008
20
-41.8149999839
10
71.1421148912
20
-42.2274154825
10
71.2796261934
20
-42.7412244054
10
71.5692447221
20
-43.187260946
10
71.6003999333
20
-43.212599946
10
71.9824783915
20
-43.5220205336
10
72.4790339866
20
-43.7126979014
10
73.0101151461
20
-43.7406850359
10
73.3709130154
20
-43.6440841088
10
73.9585688343
20
-42.7000501147
10
74.4821567854
20
-41.7203422089
10
74.4134002318
20
-41.4619008651
10
74.3858740329
20
-41.358777355
10
74.3440006942
20
-41.2943010662
10
74.2082201022
20
-41.0851115487
10
74.0962552931
20
-40.9127390774
0
LWPOLYLINE
5
139736313119120
330
1F
100
AcDbEntity
8
None
62
255
100
AcDbPolyline
90
29
70
1
43
0.0
10
71.9829662284
20
43.5223021811
10
71.6004000667
20
43.212600054
10
71.5696215432
20
43.1876793785
10
71.2798554133
20
42.7417392625
10
71.1421737032
20
42.2279752086
10
71.1636999992
20
41.8150000154
10
71.1698850771
20
41.6967852198
10
71.1841998414
20
41.6593004126
10
71.3603978232
20
41.2002661928
10
71.6950205284
20
40.7869216182
10
71.7946998909
20
40.7221000709
10
72.1410609417
20
40.4971552569
10
72.5516999028
20
40.387000026
10
72.6547245337
20
40.3593738666
10
72.65509633
20
40.3593149227
10
73.1859147929
20
40.3870850739
10
73.2233997468
20
40.4013999027
10
73.6824340919
20
40.5776978746
10
74.0958784298
20
40.9123206106
10
74.2082197766
20
41.0851110472
10
74.3439993073
20
41.2942989329
10
74.3856433682
20
41.3582594316
10
74.413399769
20
41.4618991347
10
74.4823079208
20
41.7190278552
10
73.9586278162
20
42.6999479515
10
73.371975597
20
43.6432960375
10
73.0106755239
20
43.7406261608
10
72.4795845414
20
43.7128149477
10
71.9829662284
20
43.5223021811
0
LWPOLYLINE
5
139736281293968
330
1F
100
AcDbEntity
8
None
62
255
100
AcDbPolyline
90
5
70
1
43
0.0
10
56
20
22.0018
10
57.9982
20
22
10
58
20
41.9982
10
56.0018
20
42
10
56
20
22.0018
0
LWPOLYLINE
5
139736281289424
330
1F
100
AcDbEntity
8
None
62
255
100
AcDbPolyline
90
97
70
1
43
0.0
10
50.0244425247
20
-4.90391659631
10
50.3473419201
20
-4.95721041475
10
50.6729413686
20
-4.9892842251
10
50.9999410775
20
-4.99999807015
10
51.3269411165
20
-4.98929192857
10
51.6525414179
20
-4.95722577005
10
51.9754417701
20
-4.90393961
10
52.2940426421
20
-4.82964337631
10
52.6071436059
20
-4.73466710735
10
52.9133448198
20
-4.61942076916
10
53.2113464349
20
-4.48438427324
10
53.4999480262
20
-4.33015777521
10
53.7778498257
20
-4.15738119507
10
54.0437521409
20
-3.96680430231
10
54.2966544703
20
-3.7592373689
10
54.5354570645
20
-3.53557021517
10
54.7591597102
20
-3.29677300944
10
54.9667624487
20
-3.04385574891
10
55.1572658265
20
-2.77789771022
10
55.3300689322
20
-2.50004995472
10
55.4843721067
20
-2.21149216383
10
55.6193756613
20
-1.91347372904
10
55.7345793204
20
-1.60725496965
10
55.8295828753
20
-1.29415643954
10
55.9038866195
20
-0.97550838454
10
55.9571904131
20
-0.652689064591
10
55.9892942096
20
-0.327073737108
10
55.9999980739
20
-5.88648785994e-05
10
55.9893019302
20
0.326956009734
10
55.9572057737
20
0.652572433198
10
55.9039095988
20
0.975392863222
10
55.8296133933
20
1.29404256048
10
55.7346170523
20
1.60714379923
10
55.6194207689
20
1.91336479282
10
55.4844244083
20
2.2113861174
10
55.3301277397
20
2.49994812334
10
55.1573309932
20
2.77780016511
10
54.9668344648
20
3.04376188309
10
54.7592373903
20
3.29668444727
10
54.535540218
20
3.5354870672
10
54.2967429892
20
3.75915973449
10
54.0438455149
20
3.9667326432
10
53.7779480207
20
4.15731558188
10
53.5000500458
20
4.33009888478
10
53.2114518665
20
4.48433228218
10
52.9134537028
20
4.61937566436
10
52.6072551543
20
4.73462924057
10
52.2941563608
20
4.82961290276
10
51.9755574753
20
4.90391659631
10
51.6526580799
20
4.95721041475
10
51.3270586314
20
4.9892842251
10
51.0000589225
20
4.99999807015
10
50.6730588835
20
4.98929192857
10
50.3474585821
20
4.95722577005
10
50.0245582299
20
4.90393961
10
49.7059573579
20
4.82964337631
10
49.3928563941
20
4.73466710735
10
49.0866551802
20
4.61942076916
10
48.7886535651
20
4.48438427324
10
48.5000519738
20
4.33015777521
10
48.2221501743
20
4.15738119507
10
47.9562478591
20
3.96680430231
10
47.7033455297
20
3.7592373689
10
47.4645429355
20
3.53557021517
10
47.2408402898
20
3.29677300944
10
47.0332375513
20
3.04385574891
10
46.8427341735
20
2.77789771022
10
46.6699310678
20
2.50004995472
10
46.5156278933
20
2.21149216383
10
46.3806243387
20
1.91347372904
10
46.2654206796
20
1.60725496965
10
46.1704171247
20
1.29415643954
10
46.0961133805
20
0.97550838454
10
46.0428095869
20
0.652689064591
10
46.0107057904
20
0.327073737108
10
46.0000019261
20
5.88648785994e-05
10
46.0106980698
20
-0.326956009734
10
46.0427942263
20
-0.652572433198
10
46.0960904012
20
-0.975392863222
10
46.1703866067
20
-1.29404256048
10
46.2653829477
20
-1.60714379923
10
46.3805792311
20
-1.91336479282
10
46.5155755917
20
-2.2113861174
10
46.6698722603
20
-2.49994812334
10
46.8426690068
20
-2.77780016511
10
47.0331655352
20
-3.04376188309
10
47.2407626097
20
-3.29668444727
10
47.464459782
20
-3.5354870672
10
47.7032570108
20
-3.75915973449
10
47.9561544851
20
-3.9667326432
10
48.2220519793
20
-4.15731558188
10
48.4999499542
20
-4.33009888478
10
48.7885481335
20
-4.48433228218
10
49.0865462972
20
-4.61937566436
10
49.3927448457
20
-4.73462924057
10
49.7058436392
20
-4.82961290276
10
50.0244425247
20
-4.90391659631
0
LWPOLYLINE
5
139736280855824
330
1F
100
AcDbEntity
8
None
62
255
100
AcDbPolyline
90
5
70
1
43
0.0
10
51.9982
20
22
10
52
20
41.9982
10
50.0018
20
42
10
50
20
22.0018
10
51.9982
20
22
0
LWPOLYLINE
5
139736280855312
330
1F
100
AcDbEntity
8
None
62
255
100
AcDbPolyline
90
5
70
1
43
0.0
10
45.9982
20
22
10
46
20
41.9982
10
44.0018
20
42
10
44
20
22.0018
10
45.9982
20
22
0
LWPOLYLINE
5
139736281480976
330
1F
100
AcDbEntity
8
None
62
255
100
AcDbPolyline
90
97
70
1
43
0.0
10
8.31494076333
20
3.44409483131
10
8.07187431253
20
3.9805463428
10
7.79425777981
20
4.49994802667
10
7.48326112007
20
5.00007995473
10
7.14021431879
20
5.47880210876
10
6.76659738482
20
5.93406444619
10
6.36400027902
20
6.36391699469
10
5.934153011
20
6.76651971565
10
5.47889554447
20
7.14014262284
10
5.00017790254
20
7.48319567312
10
4.50005004496
20
7.79419888013
10
3.98065195274
20
8.07182223119
10
3.44420369203
20
8.31489567169
10
2.89300514013
20
8.52234924742
10
2.32942638189
20
8.69331289675
10
1.75586740052
20
8.82705661562
10
1.1747981269
20
8.92299040372
10
0.588686646202
20
8.98072422355
10
5.88953092199e-05
20
8.99999807194
10
-0.588569101558
20
8.98073192817
10
-1.17468137001
20
8.92300577485
10
-1.75575184685
20
8.82707960062
10
-2.32931262032
20
8.69334337952
10
-2.89289362083
20
8.52238710242
10
-3.44409483131
20
8.31494076333
10
-3.9805463428
20
8.07187431253
10
-4.49994802667
20
7.79425777981
10
-5.00007995473
20
7.48326112007
10
-5.47880210876
20
7.14021431879
10
-5.93406444619
20
6.76659738482
10
-6.36391699469
20
6.36400027902
10
-6.76651971565
20
5.934153011
10
-7.14014262284
20
5.47889554447
10
-7.48319567312
20
5.00017790254
10
-7.79419888013
20
4.50005004496
10
-8.07182223119
20
3.98065195274
10
-8.31489567169
20
3.44420369203
10
-8.52234924742
20
2.89300514013
10
-8.69331289675
20
2.32942638189
10
-8.82705661562
20
1.75586740052
10
-8.92299040372
20
1.1747981269
10
-8.98072422355
20
0.588686646202
10
-8.99999807194
20
5.88953092199e-05
10
-8.98073192817
20
-0.588569101558
10
-8.92300577485
20
-1.17468137001
10
-8.82707960062
20
-1.75575184685
10
-8.69334337952
20
-2.32931262032
10
-8.52238710242
20
-2.89289362083
10
-8.31494076333
20
-3.44409483131
10
-8.07187431253
20
-3.9805463428
10
-7.79425777981
20
-4.49994802667
10
-7.48326112007
20
-5.00007995473
10
-7.14021431879
20
-5.47880210876
10
-6.76659738482
20
-5.93406444619
10
-6.36400027902
20
-6.36391699469
10
-5.934153011
20
-6.76651971565
10
-5.47889554447
20
-7.14014262284
10
-5.00017790254
20
-7.48319567312
10
-4.50005004496
20
-7.79419888013
10
-3.98065195274
20
-8.07182223119
10
-3.44420369203
20
-8.31489567169
10
-2.89300514013
20
-8.52234924742
10
-2.32942638189
20
-8.69331289675
10
-1.75586740052
20
-8.82705661562
10
-1.1747981269
20
-8.92299040372
10
-0.588686646202
20
-8.98072422355
10
-5.88953092199e-05
20
-8.99999807194
10
0.588569101558
20
-8.98073192817
10
1.17468137001
20
-8.92300577485
10
1.75575184685
20
-8.82707960062
10
2.32931262032
20
-8.69334337952
10
2.89289362083
20
-8.52238710242
10
3.44409483131
20
-8.31494076333
10
3.9805463428
20
-8.07187431253
10
4.49994802667
20
-7.79425777981
10
5.00007995473
20
-7.48326112007
10
5.47880210876
20
-7.14021431879
10
5.93406444619
20
-6.76659738482
10
6.36391699469
20
-6.36400027902
10
6.76651971565
20
-5.934153011
10
7.14014262284
20
-5.47889554447
10
7.48319567312
20
-5.00017790254
10
7.79419888013
20
-4.50005004496
10
8.07182223119
20
-3.98065195274
10
8.31489567169
20
-3.44420369203
10
8.52234924742
20
-2.89300514013
10
8.69331289675
20
-2.32942638189
10
8.82705661562
20
-1.75586740052
10
8.92299040372
20
-1.1747981269
10
8.98072422355
20
-0.588686646202
10
8.99999807194
20
-5.88953092199e-05
10
8.98073192817
20
0.588569101558
10
8.92300577485
20
1.17468137001
10
8.82707960062
20
1.75575184685
10
8.69334337952
20
2.32931262032
10
8.52238710242
20
2.89289362083
10
8.31494076333
20
3.44409483131
0
LWPOLYLINE
5
139736281467088
330
1F
100
AcDbEntity
8
None
62
255
100
AcDbPolyline
90
21
70
1
43
0.0
10
-1.69995540109
20
84.1002815842
10
-1.6168445998
20
83.5749815899
10
-1.3754594252
20
83.1010540051
10
-0.999435556442
20
82.7249015586
10
-0.525583753782
20
82.4833298215
10
-0.48596880696
20
82.4770001271
10
-0.000281689919343
20
82.4000446328
10
0.48596719318
20
82.4769998722
10
0.52504655747
20
82.4831555107
10
0.998980029944
20
82.7245705779
10
1.3751284205
20
83.1005984184
10
1.61667056481
20
83.5744459753
10
1.69995540109
20
84.0997184158
10
1.6168445998
20
84.6250184101
10
1.37545942743
20
85.0989459906
10
1.11143294959
20
85.3630970504
10
5.89459805926e-05
20
85.3999980686
10
-1.11021910336
20
85.3636232928
10
-1.37512841596
20
85.099401584
10
-1.61667056481
20
84.6255540247
10
-1.69995540109
20
84.1002815842
0
LWPOLYLINE
5
139736313083792
330
1F
100
AcDbEntity
8
None
62
255
100
AcDbPolyline
90
21
70
1
43
0.0
10
1.69995540109
20
-84.1002815842
10
1.6168445998
20
-83.5749815899
10
1.3754594252
20
-83.1010540051
10
0.999435556442
20
-82.7249015586
10
0.525583753782
20
-82.4833298215
10
0.48596880696
20
-82.4770001271
10
0.000281689919343
20
-82.4000446328
10
-0.48596719318
20
-82.4769998722
10
-0.52504655747
20
-82.4831555107
10
-0.998980029944
20
-82.7245705779
10
-1.3751284205
20
-83.1005984184
10
-1.61667056481
20
-83.5744459753
10
-1.69995540109
20
-84.0997184158
10
-1.6168445998
20
-84.6250184101
10
-1.37545942743
20
-85.0989459906
10
-1.11143294959
20
-85.3630970504
10
-5.89459805926e-05
20
-85.3999980686
10
1.11021910336
20
-85.3636232928
10
1.37512841596
20
-85.099401584
10
1.61667056481
20
-84.6255540247
10
1.69995540109
20
-84.1002815842
0
LWPOLYLINE
5
139736280854992
330
1F
100
AcDbEntity
8
None
62
255
100
AcDbPolyline
90
30
70
1
43
0.0
10
-74.3440003471
20
41.2943005331
10
-74.2082201022
20
41.0851115487
10
-74.0962552931
20
40.9127390774
10
-73.6829213831
20
40.5779792378
10
-73.2234002532
20
40.4014000973
10
-73.1864665795
20
40.3872024755
10
-72.6552848084
20
40.3593149053
10
-72.6549088867
20
40.3593346485
10
-72.5517001299
20
40.3869999652
10
-72.3981500522
20
40.428149986
10
-72.1415753099
20
40.4969262017
10
-71.7947001092
20
40.7220999291
10
-71.6954391853
20
40.7865447098
10
-71.3606794429
20
41.1997784172
10
-71.1842001584
20
41.6592995873
10
-71.17000248
20
41.6962334087
10
-71.1637000008
20
41.8149999839
10
-71.1421148912
20
42.2274154825
10
-71.2796261934
20
42.7412244054
10
-71.5692447221
20
43.187260946
10
-71.6003999333
20
43.212599946
10
-71.9824783915
20
43.5220205336
10
-72.4790339866
20
43.7126979014
10
-73.0101151461
20
43.7406850359
10
-73.3709130154
20
43.6440841088
10
-73.9585688343
20
42.7000501147
10
-74.4821567854
20
41.7203422089
10
-74.4134002318
20
41.4619008651
10
-74.3858740329
20
41.358777355
10
-74.3440003471
20
41.2943005331
0
LWPOLYLINE
5
139736281237392
330
1F
100
AcDbEntity
8
None
62
255
100
AcDbPolyline
90
29
70
1
43
0.0
10
-71.9829662284
20
-43.5223021811
10
-71.6004000667
20
-43.212600054
10
-71.5696215432
20
-43.1876793785
10
-71.2798554133
20
-42.7417392625
10
-71.1421737032
20
-42.2279752086
10
-71.1636999992
20
-41.8150000154
10
-71.1698850771
20
-41.6967852198
10
-71.1841998414
20
-41.6593004126
10
-71.3603978232
20
-41.2002661928
10
-71.6950205284
20
-40.7869216182
10
-71.7946998909
20
-40.7221000709
10
-72.1410609417
20
-40.4971552569
10
-72.5516999028
20
-40.387000026
10
-72.6547245337
20
-40.3593738666
10
-72.65509633
20
-40.3593149227
10
-73.1859147929
20
-40.3870850739
10
-73.2233997468
20
-40.4013999027
10
-73.6824340919
20
-40.5776978746
10
-74.0958784298
20
-40.9123206106
10
-74.2082197766
20
-41.0851110472
10
-74.3439993073
20
-41.2942989329
10
-74.3856433682
20
-41.3582594316
10
-74.413399769
20
-41.4618991347
10
-74.4823079208
20
-41.7190278552
10
-73.9586278162
20
-42.6999479515
10
-73.371975597
20
-43.6432960375
10
-73.0106755239
20
-43.7406261608
10
-72.4795845414
20
-43.7128149477
10
-71.9829662284
20
-43.5223021811
0
ENDSEC
0
SECTION
2
OBJECTS
0
DICTIONARY
5
C
100
AcDbDictionary
281
1
3
ACAD_GROUP
350
D
0
DICTIONARY
5
D
330
C
100
AcDbDictionary
281
1
0
ENDSEC
0
EOF