999
trimesh
0
SECTION
2
HEADER
9
$ACADVER
1
AC1014
9
$DWGCODEPAGE
3
ANSI_1252
9
$INSBASE
10
0
20
0
30
0
9
$EXTMIN
10
-104.99999968
20
-104.99999968
30
0
9
$EXTMAX
10
104.99999968
20
104.99999968
30
0
9
$LIMMIN
10
0
20
0
9
$LIMMAX
10
12
20
9
9
$ORTHOMODE
70
0
9
$REGENMODE
70
1
9
$FILLMODE
70
1
9
$QTEXTMODE
70
0
9
$MIRRTEXT
70
1
9
$LTSCALE
40
1
9
$ATTMODE
70
1
9
$TEXTSIZE
40
0.2
9
$TRACEWID
40
0.05
9
$TEXTSTYLE
7
STANDARD
9
$CLAYER
8
0
9
$CELTYPE
6
BYBLOCK
9
$CECOLOR
62
256
9
$CELTSCALE
40
1
9
$DISPSILH
70
0
9
$DIMSCALE
40
1
9
$DIMASZ
40
0.18
9
$DIMEXO
40
0.0625
9
$DIMDLI
40
0.38
9
$DIMRND
40
0
9
$DIMDLE
40
0
9
$DIMEXE
40
0.18
9
$DIMTP
40
0
9
$DIMTM
40
0
9
$DIMTXT
40
0.18
9
$DIMCEN
40
0.09
9
$DIMTSZ
40
0
9
$DIMTOL
70
0
9
$DIMLIM
70
0
9
$DIMTIH
70
1
9
$DIMTOH
70
1
9
$DIMSE1
70
0
9
$DIMSE2
70
0
9
$DIMTAD
70
0
9
$DIMZIN
70
0
9
$DIMASO
70
1
9
$DIMSHO
70
1
9
$DIMALT
70
0
9
$DIMALTD
70
2
9
$DIMALTF
40
25.4
9
$DIMLFAC
40
1
9
$DIMTOFL
70
0
9
$DIMTVP
40
0
9
$DIMTIX
70
0
9
$DIMSOXD
70
0
9
$DIMSAH
70
0
9
$DIMSTYLE
2
STANDARD
9
$DIMCLRD
70
0
9
$DIMCLRE
70
0
9
$DIMCLRT
70
0
9
$DIMTFAC
40
1
9
$DIMGAP
40
0.09
9
$DIMJUST
70
0
9
$DIMSD1
70
0
9
$DIMSD2
70
0
9
$DIMTOLJ
70
1
9
$DIMTZIN
70
0
9
$DIMALTZ
70
0
9
$DIMALTTZ
70
0
9
$DIMUPT
70
0
9
$DIMDEC
70
4
9
$DIMTDEC
70
4
9
$DIMALTU
70
2
9
$DIMALTTD
70
2
9
$DIMTXSTY
7
STANDARD
9
$DIMAUNIT
70
0
9
$DIMADEC
70
0
9
$DIMALTRND
40
0
9
$DIMAZIN
70
0
9
$DIMDSEP
70
44
9
$DIMATFIT
70
3
9
$DIMFRAC
70
0
9
$DIMLDRBLK
1
STANDARD
9
$DIMUNIT
70
2
9
$DIMLWD
70
-2
9
$DIMLWE
70
-2
9
$DIMTMOVE
70
0
9
$LUNITS
70
1
9
$LUPREC
70
4
9
$SKETCHINC
40
0.1
9
$FILLETRAD
40
0.5
9
$AUNITS
70
0
9
$AUPREC
70
0
9
$MENU
1
.
9
$ELEVATION
40
0
9
$PELEVATION
40
0
9
$THICKNESS
40
0
9
$LIMCHECK
70
0
9
$BLIPMODE
70
0
9
$CHAMFERA
40
0
9
$CHAMFERB
40
0
9
$CHAMFERC
40
0
9
$CHAMFERD
40
0
9
$SKPOLY
70
0
9
$USRTIMER
70
1
9
$ANGBASE
50
0
9
$ANGDIR
70
0
9
$PDMODE
70
0
9
$PDSIZE
40
0
9
$PLINEWID
40
0
9
$SPLFRAME
70
0
9
$SPLINETYPE
70
6
9
$SPLINESEGS
70
8
9
$HANDSEED
5
20000
9
$SURFTAB1
70
6
9
$SURFTAB2
70
6
9
$SURFTYPE
70
6
9
$SURFU
70
6
9
$SURFV
70
6
9
$UCSORG
10
0
20
0
30
0
9
$UCSXDIR
10
1
20
0
30
0
9
$UCSYDIR
10
0
20
1
30
0
9
$UCSORTHOVIEW
70
0
9
$UCSORGTOP
10
0
20
0
30
0
9
$UCSORGBOTTOM
10
0
20
0
30
0
9
$UCSORGLEFT
10
0
20
0
30
0
9
$UCSORGRIGHT
10
0
20
0
30
0
9
$UCSORGFRONT
10
0
20
0
30
0
9
$UCSORGBACK
10
0
20
0
30
0
9
$PUCSORG
10
0
20
0
30
0
9
$PUCSXDIR
10
1
20
0
30
0
9
$PUCSYDIR
10
0
20
1
30
0
9
$PUCSORTHOVIEW
70
0
9
$PUCSORGTOP
10
0
20
0
30
0
9
$PUCSORGBOTTOM
10
0
20
0
30
0
9
$PUCSORGLEFT
10
0
20
0
30
0
9
$PUCSORGRIGHT
10
0
20
0
30
0
9
$PUCSORGFRONT
10
0
20
0
30
0
9
$PUCSORGBACK
10
0
20
0
30
0
9
$USERI1
70
0
9
$USERI2
70
0
9
$USERI3
70
0
9
$USERI4
70
0
9
$USERI5
70
0
9
$USERR1
40
0
9
$USERR2
40
0
9
$USERR3
40
0
9
$USERR4
40
0
9
$USERR5
40
0
9
$WORLDVIEW
70
1
9
$SHADEDGE
70
3
9
$SHADEDIF
70
70
9
$TILEMODE
70
1
9
$MAXACTVP
70
64
9
$PINSBASE
10
0
20
0
30
0
9
$PLIMCHECK
70
0
9
$PEXTMIN
10
1e+20
20
1e+20
30
1e+20
9
$PEXTMAX
10
-1e+20
20
-1e+20
30
-1e+20
9
$GRIDMODE
70
0
9
$SNAPSTYLE
70
0
9
$PLIMMIN
10
0
20
0
9
$PLIMMAX
10
0
20
0
9
$UNITMODE
70
0
9
$VISRETAIN
70
1
9
$PLINEGEN
70
0
9
$PSLTSCALE
70
1
9
$TREEDEPTH
70
3020
9
$CMLSTYLE
2
STANDARD
9
$CMLJUST
70
0
9
$CMLSCALE
40
1
9
$PROXYGRAPHICS
70
1
9
$MEASUREMENT
70
0
9
$CELWEIGHT
370
-1
9
$ENDCAPS
280
0
9
$JOINSTYLE
280
0
9
$LWDISPLAY
290
0
9
$XEDIT
290
1
9
$CEPSNTYPE
380
0
9
$PSTYLEMODE
290
1
9
$EXTNAMES
290
1
9
$PSVPSCALE
40
1
9
$OLESTARTUP
290
0
0
ENDSEC
0
SECTION
2
CLASSES
0
ENDSEC
0
SECTION
2
TABLES
0
TABLE
2
VPORT
5
8
100
AcDbSymbolTable
70
1
0
VPORT
5
31
330
2
100
AcDbSymbolTableRecord
100
AcDbViewportTableRecord
2
*ACTIVE
70
0
10
0
20
0
11
1
21
1
12
354.791887455375
22
270.82508654025
13
0
23
0
14
10
24
10
15
10
25
10
16
0
26
0
36
1
17
0
27
0
37
0
40
650.7886407907502
41
1.281197063805759
42
50
43
0
44
0
50
0
51
0
71
0
72
100
73
1
74
3
75
0
76
0
77
0
78
0
0
ENDTAB
0
TABLE
2
LTYPE
5
5
100
AcDbSymbolTable
70
4
0
LTYPE
5
14
100
AcDbSymbolTableRecord
100
AcDbLinetypeTableRecord
2
ByBlock
70
0
72
65
73
0
40
0
0
LTYPE
5
15
100
AcDbSymbolTableRecord
100
AcDbLinetypeTableRecord
2
ByLayer
70
0
72
65
73
0
40
0
0
LTYPE
5
16
100
AcDbSymbolTableRecord
100
AcDbLinetypeTableRecord
2
Continuous
70
0
3
Solid line
72
65
73
0
40
0
0
LTYPE
5
32
330
5
100
AcDbSymbolTableRecord
100
AcDbLinetypeTableRecord
2
DOT
70
0
3
Dot . . . . . . . . . . . . . . . . . . . . . .
72
65
73
2
40
6.35
49
0
74
0
49
-6.35
74
0
0
LTYPE
5
33
330
5
100
AcDbSymbolTableRecord
100
AcDbLinetypeTableRecord
2
DOTTINY
70
0
3
Dot (.15x) .....................................
72
65
73
2
40
0.9525
49
0
74
0
49
-0.9525
74
0
0
LTYPE
5
34
330
5
100
AcDbSymbolTableRecord
100
AcDbLinetypeTableRecord
2
DOT2
70
0
3
Dot (.5x) .....................................
72
65
73
2
40
3.175
49
0
74
0
49
-3.175
74
0
0
LTYPE
5
35
330
5
100
AcDbSymbolTableRecord
100
AcDbLinetypeTableRecord
2
DOTX2
70
0
3
Dot (2x) .  .  .  .  .  .  .  .  .  .  .  .  .
72
65
73
2
40
12.7
49
0
74
0
49
-12.7
74
0
0
LTYPE
5
36
330
5
100
AcDbSymbolTableRecord
100
AcDbLinetypeTableRecord
2
DASHED
70
0
3
Dashed _ _ _ _ _ _ _ _ _ _ _ _ _ _ _ _ _
72
65
73
2
40
19.05
49
12.7
74
0
49
-6.35
74
0
0
LTYPE
5
37
330
5
100
AcDbSymbolTableRecord
100
AcDbLinetypeTableRecord
2
DASHEDTINY
70
0
3
Dashed (.15x) _ _ _ _ _ _ _ _ _ _ _ _ _ _ _ _ _
72
65
73
2
40
2.8575
49
1.905
74
0
49
-0.9525
74
0
0
LTYPE
5
38
330
5
100
AcDbSymbolTableRecord
100
AcDbLinetypeTableRecord
2
DASHED2
70
0
3
Dashed (.5x) _ _ _ _ _ _ _ _ _ _ _ _ _ _ _ _ _
72
65
73
2
40
9.524999999999999
49
6.35
74
0
49
-3.175
74
0
0
LTYPE
5
39
330
5
100
AcDbSymbolTableRecord
100
AcDbLinetypeTableRecord
2
DASHEDX2
70
0
3
Dashed (2x) ____  ____  ____  ____  ____  ___
72
65
73
2
40
38.09999999999999
49
25.4
74
0
49
-12.7
74
0
0
LTYPE
5
3A
330
5
100
AcDbSymbolTableRecord
100
AcDbLinetypeTableRecord
2
DASHDOT
70
0
3
Dash dot __ . __ . __ . __ . __ . __ . __ . __
72
65
73
4
40
25.4
49
12.7
74
0
49
-6.35
74
0
49
0
74
0
49
-6.35
74
0
0
LTYPE
5
3B
330
5
100
AcDbSymbolTableRecord
100
AcDbLinetypeTableRecord
2
DASHDOTTINY
70
0
3
Dash dot (.15x) _._._._._._._._._._._._._._._.
72
65
73
4
40
3.81
49
1.905
74
0
49
-0.9525
74
0
49
0
74
0
49
-0.9525
74
0
0
LTYPE
5
3C
330
5
100
AcDbSymbolTableRecord
100
AcDbLinetypeTableRecord
2
DASHDOT2
70
0
3
Dash dot (.5x) _._._._._._._._._._._._._._._.
72
65
73
4
40
12.7
49
6.35
74
0
49
-3.175
74
0
49
0
74
0
49
-3.175
74
0
0
LTYPE
5
3D
330
5
100
AcDbSymbolTableRecord
100
AcDbLinetypeTableRecord
2
DASHDOTX2
70
0
3
Dash dot (2x) ____  .  ____  .  ____  .  ___
72
65
73
4
40
50.8
49
25.4
74
0
49
-12.7
74
0
49
0
74
0
49
-12.7
74
0
0
LTYPE
5
3E
330
5
100
AcDbSymbolTableRecord
100
AcDbLinetypeTableRecord
2
DIVIDE
70
0
3
Divide ____ . . ____ . . ____ . . ____ . . ____
72
65
73
6
40
31.75
49
12.7
74
0
49
-6.35
74
0
49
0
74
0
49
-6.35
74
0
49
0
74
0
49
-6.35
74
0
0
LTYPE
5
3F
330
5
100
AcDbSymbolTableRecord
100
AcDbLinetypeTableRecord
2
DIVIDETINY
70
0
3
Divide (.15x) __..__..__..__..__..__..__..__.._
72
65
73
6
40
4.7625
49
1.905
74
0
49
-0.9525
74
0
49
0
74
0
49
-0.9525
74
0
49
0
74
0
49
-0.9525
74
0
0
LTYPE
5
40
330
5
100
AcDbSymbolTableRecord
100
AcDbLinetypeTableRecord
2
DIVIDE2
70
0
3
Divide (.5x) __..__..__..__..__..__..__..__.._
72
65
73
6
40
15.875
49
6.35
74
0
49
-3.175
74
0
49
0
74
0
49
-3.175
74
0
49
0
74
0
49
-3.175
74
0
0
LTYPE
5
41
330
5
100
AcDbSymbolTableRecord
100
AcDbLinetypeTableRecord
2
DIVIDEX2
70
0
3
Divide (2x) ________  .  .  ________  .  .  _
72
65
73
6
40
63.5
49
25.4
74
0
49
-12.7
74
0
49
0
74
0
49
-12.7
74
0
49
0
74
0
49
-12.7
74
0
0
LTYPE
5
42
330
5
100
AcDbSymbolTableRecord
100
AcDbLinetypeTableRecord
2
BORDER
70
0
3
Border __ __ . __ __ . __ __ . __ __ . __ __ .
72
65
73
6
40
44.45
49
12.7
74
0
49
-6.35
74
0
49
12.7
74
0
49
-6.35
74
0
49
0
74
0
49
-6.35
74
0
0
LTYPE
5
43
330
5
100
AcDbSymbolTableRecord
100
AcDbLinetypeTableRecord
2
BORDERTINY
70
0
3
Border (.15x) __.__.__.__.__.__.__.__.__.__.__.
72
65
73
6
40
6.6675
49
1.905
74
0
49
-0.9525
74
0
49
1.905
74
0
49
-0.9525
74
0
49
0
74
0
49
-0.9525
74
0
0
LTYPE
5
44
330
5
100
AcDbSymbolTableRecord
100
AcDbLinetypeTableRecord
2
BORDER2
70
0
3
Border (.5x) __.__.__.__.__.__.__.__.__.__.__.
72
65
73
6
40
22.225
49
6.35
74
0
49
-3.175
74
0
49
6.35
74
0
49
-3.175
74
0
49
0
74
0
49
-3.175
74
0
0
LTYPE
5
45
330
5
100
AcDbSymbolTableRecord
100
AcDbLinetypeTableRecord
2
BORDERX2
70
0
3
Border (2x) ____  ____  .  ____  ____  .  ___
72
65
73
6
40
88.89999999999999
49
25.4
74
0
49
-12.7
74
0
49
25.4
74
0
49
-12.7
74
0
49
0
74
0
49
-12.7
74
0
0
LTYPE
5
46
330
5
100
AcDbSymbolTableRecord
100
AcDbLinetypeTableRecord
2
CENTER
70
0
3
Center ____ _ ____ _ ____ _ ____ _ ____ _ ____
72
65
73
4
40
50.8
49
31.75
74
0
49
-6.35
74
0
49
6.35
74
0
49
-6.35
74
0
0
LTYPE
5
47
330
5
100
AcDbSymbolTableRecord
100
AcDbLinetypeTableRecord
2
CENTERTINY
70
0
3
Center (.15x) ___ _ ___ _ ___ _ ___ _ ___ _ ___
72
65
73
4
40
7.619999999999999
49
4.7625
74
0
49
-0.9525
74
0
49
0.9525
74
0
49
-0.9525
74
0
0
LTYPE
5
48
330
5
100
AcDbSymbolTableRecord
100
AcDbLinetypeTableRecord
2
CENTER2
70
0
3
Center (.5x) ___ _ ___ _ ___ _ ___ _ ___ _ ___
72
65
73
4
40
28.575
49
19.05
74
0
49
-3.175
74
0
49
3.175
74
0
49
-3.175
74
0
0
LTYPE
5
49
330
5
100
AcDbSymbolTableRecord
100
AcDbLinetypeTableRecord
2
CENTERX2
70
0
3
Center (2x) ________  __  ________  __  _____
72
65
73
4
40
101.6
49
63.5
74
0
49
-12.7
74
0
49
12.7
74
0
49
-12.7
74
0
0
ENDTAB
0
TABLE
2
LAYER
5
2
100
AcDbSymbolTable
70
1
0
LAYER
5
10
330
2
100
AcDbSymbolTableRecord
100
AcDbLayerTableRecord
2
0
70
0
62
7
6
CONTINUOUS
370
0
390
F
0
LAYER
5
4A
330
2
100
AcDbSymbolTableRecord
100
AcDbLayerTableRecord
2
None
70
0
62
7
6
CONTINUOUS
370
-3
390
F
0
ENDTAB
0
TABLE
2
STYLE
5
3
100
AcDbSymbolTable
70
3
0
STYLE
5
4B
330
2
100
AcDbSymbolTableRecord
100
AcDbTextStyleTableRecord
2
Standard
70
0
40
0
41
1
50
0
71
0
42
1
3
txt
0
ENDTAB
0
TABLE
2
VIEW
5
6
100
AcDbSymbolTable
70
0
0
ENDTAB
0
TABLE
2
UCS
5
7
100
AcDbSymbolTable
70
0
0
ENDTAB
0
TABLE
2
APPID
5
9
100
AcDbSymbolTable
70
1
0
APPID
5
12
100
AcDbSymbolTableRecord
100
AcDbRegAppTableRecord
2
ACAD
70
0
0
APPID
5
4C
100
AcDbSymbolTableRecord
100
AcDbRegAppTableRecord
2
LibreCad
70
0
0
ENDTAB
0
TABLE
2
DIMSTYLE
5
A
100
AcDbSymbolTable
70
1
0
DIMSTYLE
105
4D
330
A
100
AcDbSymbolTableRecord
100
AcDbDimStyleTableRecord
2
Standard
70
0
40
1
41
0.18
42
0.0625
43
0.38
44
0.18
45
0
46
0
47
0
48
0
49
1
140
0.18
141
0.09
142
0
143
25.4
144
1
145
0
146
1
147
0.09
71
0
72
0
73
1
74
1
75
0
76
0
77
0
78
0
170
0
171
2
172
0
173
0
174
0
175
0
176
0
177
0
178
0
270
2
271
4
272
4
273
2
274
2
275
0
280
0
281
0
282
0
283
1
284
0
285
0
286
0
287
3
288
0
340
STANDARD
0
ENDTAB
0
TABLE
2
BLOCK_RECORD
5
1
100
AcDbSymbolTable
70
2
0
BLOCK_RECORD
5
1F
100
AcDbSymbolTableRecord
100
AcDbBlockTableRecord
2
*Model_Space
0
BLOCK_RECORD
5
1E
100
AcDbSymbolTableRecord
100
AcDbBlockTableRecord
2
*Paper_Space
0
ENDTAB
0
ENDSEC
0
SECTION
2
BLOCKS
0
BLOCK
5
20
100
AcDbEntity
8
0
100
AcDbBlockBegin
2
*Model_Space
70
0
10
0
20
0
30
0
3
*Model_Space
0
ENDBLK
5
21
100
AcDbEntity
8
0
100
AcDbBlockEnd
0
BLOCK
5
1C
100
AcDbEntity
8
0
100
AcDbBlockBegin
2
*Paper_Space
70
0
10
0
20
0
30
0
3
*Paper_Space
0
ENDBLK
5
1D
100
AcDbEntity
8
0
100
AcDbBlockEnd
0
ENDSEC
0
SECTION
2
ENTITIES
0
LWPOLYLINE
5
139736281186064
330
1F
100
AcDbEntity
8
None
62
255
100
AcDbPolyline
90
205
70
1
43
0.0
10
104.93600032
20
-3.66443165467
10
104.744000955
20
-7.32441178657
10
104.425001605
20
-10.9754816333
10
104.424997751
20
-10.975518299
10
103.978002223
20
-14.6131819065
10
103.405002888
20
-18.2330817551
10
103.404996472
20
-18.233118132
10
102.705003469
20
-21.8306821693
10
102.704995916
20
-21.8307177
10
101.881004148
20
-25.4017820227
10
100.932004714
20
-28.9418824167
10
99.8609053743
20
-32.4467824138
10
98.6677059652
20
-35.9120826759
10
97.3543065685
20
-39.3336828881
10
95.9223071594
20
-42.7072831335
10
94.3734077492
20
-46.0289833814
10
92.7095083155
20
-49.2944836804
10
90.9327088868
20
-52.4999839675
10
89.0451094422
20
-55.6414842856
10
87.0489099741
20
-58.7152846416
10
84.9468105187
20
-61.7174849772
10
82.7411110242
20
-64.6444853707
10
80.4347115386
20
-67.4926857509
10
78.0302120187
20
-70.2586861744
10
75.5307124995
20
-72.9390865958
10
72.9391129597
20
-75.5306870403
10
70.2587133979
20
-78.0301875063
10
67.4927138376
20
-80.4346879709
10
64.6445142358
20
-82.7410884722
10
61.7175146463
20
-84.946788963
10
58.7153150012
20
-87.0488894964
10
55.6415153752
20
-89.045090015
10
52.5000157125
20
-90.932690559
10
49.2945160196
20
-92.7094911204
10
46.0290163379
20
-94.3733916752
10
42.7073166064
20
-95.9222922565
10
39.3337168722
20
-97.3542928382
10
35.9121171054
20
-98.667693434
10
32.4468173872
20
-99.8608940131
10
28.9419174093
20
-100.93199468
10
25.4018178204
20
-101.880995223
10
21.8307177
20
-102.704995916
10
21.8306821693
20
-102.705003469
10
18.233118132
20
-103.404996472
10
18.2330817551
20
-103.405002888
10
14.6132180054
20
-103.97799715
10
10.975518299
20
-104.424997751
10
10.9754816333
20
-104.425001605
10
7.32444816925
20
-104.743998413
10
3.66446832294
20
-104.935999039
10
1.83341644783e-05
20
-104.99999968
10
-3.66443165467
20
-104.93600032
10
-7.32441178657
20
-104.744000955
10
-10.9754816333
20
-104.425001605
10
-10.975518299
20
-104.424997751
10
-14.6131819065
20
-103.978002223
10
-18.2330817551
20
-103.405002888
10
-18.233118132
20
-103.404996472
10
-21.8306821693
20
-102.705003469
10
-21.8307177
20
-102.704995916
10
-25.4017820227
20
-101.881004148
10
-28.9418824167
20
-100.932004714
10
-32.4467824138
20
-99.8609053743
10
-35.9120826759
20
-98.6677059652
10
-39.3336828881
20
-97.3543065685
10
-42.7072831335
20
-95.9223071594
10
-46.0289833814
20
-94.3734077492
10
-49.2944836804
20
-92.7095083155
10
-52.4999839675
20
-90.9327088868
10
-55.6414842856
20
-89.0451094422
10
-58.7152846416
20
-87.0489099741
10
-61.7174849772
20
-84.9468105187
10
-64.6444853707
20
-82.7411110242
10
-67.4926857509
20
-80.4347115386
10
-70.2586861744
20
-78.0302120187
10
-72.9390865958
20
-75.5307124995
10
-75.5306870403
20
-72.9391129597
10
-78.0301875063
20
-70.2587133979
10
-80.4346879709
20
-67.4927138376
10
-82.7410884722
20
-64.6445142358
10
-84.946788963
20
-61.7175146463
10
-87.0488894964
20
-58.7153150012
10
-89.045090015
20
-55.6415153752
10
-90.932690559
20
-52.5000157125
10
-92.7094911204
20
-49.2945160196
10
-94.3733916752
20
-46.0290163379
10
-95.9222922565
20
-42.7073166064
10
-97.3542928382
20
-39.3337168722
10
-98.667693434
20
-35.9121171054
10
-99.8608940131
20
-32.4468173872
10
-100.93199468
20
-28.9419174093
10
-101.880995223
20
-25.4018178204
10
-102.704995916
20
-21.8307177
10
-102.705003469
20
-21.8306821693
10
-103.404996472
20
-18.233118132
10
-103.405002888
20
-18.2330817551
10
-103.97799715
20
-14.6132180054
10
-104.424997751
20
-10.975518299
10
-104.425001605
20
-10.9754816333
10
-104.743998413
20
-7.32444816925
10
-104.935999039
20
-3.66446832294
10
-104.99999968
20
-1.83341644783e-05
10
-104.93600032
20
3.66443165467
10
-104.744000955
20
7.32441178657
10
-104.425001605
20
10.9754816333
10
-104.424997751
20
10.975518299
10
-103.978002223
20
14.6131819065
10
-103.405002888
20
18.2330817551
10
-103.404996472
20
18.233118132
10
-102.705003469
20
21.8306821693
10
-102.704995916
20
21.8307177
10
-101.881004148
20
25.4017820227
10
-100.932004714
20
28.9418824167
10
-99.8609053743
20
32.4467824138
10
-98.6677059652
20
35.9120826759
10
-97.3543065685
20
39.3336828881
10
-95.9223071594
20
42.7072831335
10
-94.3734077492
20
46.0289833814
10
-92.7095083155
20
49.2944836804
10
-90.9327088868
20
52.4999839675
10
-89.0451094422
20
55.6414842856
10
-87.0489099741
20
58.7152846416
10
-84.9468105187
20
61.7174849772
10
-82.7411110242
20
64.6444853707
10
-80.4347115386
20
67.4926857509
10
-78.0302120187
20
70.2586861744
10
-75.5307124995
20
72.9390865958
10
-72.9391129597
20
75.5306870403
10
-70.2587133979
20
78.0301875063
10
-67.4927138376
20
80.4346879709
10
-64.6445142358
20
82.7410884722
10
-61.7175146463
20
84.946788963
10
-58.7153150012
20
87.0488894964
10
-55.6415153752
20
89.045090015
10
-52.5000157125
20
90.932690559
10
-49.2945160196
20
92.7094911204
10
-46.0290163379
20
94.3733916752
10
-42.7073166064
20
95.9222922565
10
-39.3337168722
20
97.3542928382
10
-35.9121171054
20
98.667693434
10
-32.4468173872
20
99.8608940131
10
-28.9419174093
20
100.93199468
10
-25.4018178204
20
101.880995223
10
-21.8307177
20
102.704995916
10
-21.8306821693
20
102.705003469
10
-18.233118132
20
103.404996472
10
-18.2330817551
20
103.405002888
10
-14.6132180054
20
103.97799715
10
-10.975518299
20
104.424997751
10
-10.9754816333
20
104.425001605
10
-7.32444816925
20
104.743998413
10
-3.66446832294
20
104.935999039
10
-1.83341644783e-05
20
104.99999968
10
3.66443165467
20
104.93600032
10
7.32441178657
20
104.744000955
10
10.9754816333
20
104.425001605
10
10.975518299
20
104.424997751
10
14.6131819065
20
103.978002223
10
18.2330817551
20
103.405002888
10
18.233118132
20
103.404996472
10
21.8306821693
20
102.705003469
10
21.8307177
20
102.704995916
10
25.4017820227
20
101.881004148
10
28.9418824167
20
100.932004714
10
32.4467824138
20
99.8609053743
10
35.9120826759
20
98.6677059652
10
39.3336828881
20
97.3543065685
10
42.7072831335
20
95.9223071594
10
46.0289833814
20
94.3734077492
10
49.2944836804
20
92.7095083155
10
52.4999839675
20
90.9327088868
10
55.6414842856
20
89.0451094422
10
58.7152846416
20
87.0489099741
10
61.7174849772
20
84.9468105187
10
64.6444853707
20
82.7411110242
10
67.4926857509
20
80.4347115386
10
70.2586861744
20
78.0302120187
10
72.9390865958
20
75.5307124995
10
75.5306870403
20
72.9391129597
10
78.0301875063
20
70.2587133979
10
80.4346879709
20
67.4927138376
10
82.7410884722
20
64.6445142358
10
84.946788963
20
61.7175146463
10
87.0488894964
20
58.7153150012
10
89.045090015
20
55.6415153752
10
90.932690559
20
52.5000157125
10
92.7094911204
20
49.2945160196
10
94.3733916752
20
46.0290163379
10
95.9222922565
20
42.7073166064
10
97.3542928382
20
39.3337168722
10
98.667693434
20
35.9121171054
10
99.8608940131
20
32.4468173872
10
100.93199468
20
28.9419174093
10
101.880995223
20
25.4018178204
10
102.704995916
20
21.8307177
10
102.705003469
20
21.8306821693
10
103.404996472
20
18.233118132
10
103.405002888
20
18.2330817551
10
103.97799715
20
14.6132180054
10
104.424997751
20
10.975518299
10
104.425001605
20
10.9754816333
10
104.743998413
20
7.32444816925
10
104.935999039
20
3.66446832294
10
104.99999968
20
1.83341644783e-05
10
104.93600032
20
-3.66443165467
0
LWPOLYLINE
5
139736281184784
330
1F
100
AcDbEntity
8
None
62
255
100
AcDbPolyline
90
33
70
1
43
0.0
10
17.4750285215
20
1.6168520331
10
17.4748135081
20
1.61680633
10
17.0010963392
20
1.37548099607
10
16.6249351517
20
0.999469149183
10
16.3833514584
20
0.525626212746
10
16.3831480958
20
0.524999483676
10
16.3770001483
20
0.485968941444
10
16.3000520716
20
0.000328638238712
10
16.3769998509
20
-0.485967058714
10
16.3831480958
20
-0.524999483722
10
16.3831937781
20
-0.525215140522
10
16.6245490076
20
-0.998937701601
10
17.0005648214
20
-1.37509482391
10
17.4744036379
20
-1.61664899228
10
17.4750285215
20
-1.6168520331
10
17.9996714851
20
-1.69994796794
10
18.5249714785
20
-1.6168520331
10
18.5251864919
20
-1.61680633
10
18.9989036608
20
-1.37548099607
10
19.3750648483
20
-0.999469149183
10
19.6166485416
20
-0.525626212746
10
19.6168519042
20
-0.524999483676
10
19.6229998517
20
-0.485968941444
10
19.6999479284
20
-0.000328638238712
10
19.6230001491
20
0.485967058714
10
19.6168519042
20
0.524999483722
10
19.6168062219
20
0.525215140522
10
19.3754509924
20
0.998937701601
10
18.9994351786
20
1.37509482391
10
18.5255963621
20
1.61664899228
10
18.5249714785
20
1.6168520331
10
18.0003285149
20
1.69994796794
10
17.4750285215
20
1.6168520331
0
LWPOLYLINE
5
139736281184720
330
1F
100
AcDbEntity
8
None
62
255
100
AcDbPolyline
90
7
70
1
43
0.0
10
-12.9319937893
20
0.00104999476142
10
-6.46692621677
20
-11.1989499948
10
6.4651075604
20
-11.2
10
12.9319937893
20
-0.00104999476142
10
6.46692621677
20
11.1989499948
10
-6.4651075604
20
11.2
10
-12.9319937893
20
0.00104999476142
0
LWPOLYLINE
5
139736281184848
330
1F
100
AcDbEntity
8
None
62
255
100
AcDbPolyline
90
37
70
1
43
0.0
10
-8.15031066223
20
14.1160807668
10
-7.76762132934
20
14.4258989233
10
-7.73691031274
20
14.450689867
10
-7.6720701134
20
14.5503998253
10
-7.48870027054
20
14.8327995834
10
-7.44715152457
20
14.8967207314
10
-7.30939607498
20
15.4104787351
10
-7.33713258911
20
15.9415678548
10
-7.35142998549
20
15.9790999622
10
-7.52764076546
20
16.4381893532
10
-7.83739963766
20
16.8207995526
10
-7.86227051339
20
16.8515410652
10
-8.30827093413
20
17.1413187608
10
-8.82197889904
20
17.2790139981
10
-9.35311726377
20
17.2513174152
10
-9.39064948294
20
17.2370001988
10
-9.84968940084
20
17.060819209
10
-10.2630414455
20
16.7262093835
10
-10.3278999173
20
16.6265001274
10
-10.552818867
20
16.2801789014
10
-10.6629999696
20
15.8695001134
10
-10.6906138223
20
15.7665213774
10
-10.6629174138
20
15.2353327416
10
-10.6628485692
20
15.2348983813
10
-10.6486001136
20
15.1978002954
10
-10.4723191463
20
14.7388102261
10
-10.1377093223
20
14.3253585415
10
-10.1372210209
20
14.324918809
10
-9.93342450461
20
14.1925573007
10
-9.75570093154
20
14.0772006046
10
-9.69172964056
20
14.0355819296
10
-9.43457518497
20
13.9666000495
10
-9.28101045989
20
13.9255001231
10
-9.17802135942
20
13.8978861645
10
-8.64688273623
20
13.9255825848
10
-8.60935051706
20
13.9398998012
10
-8.15031066223
20
14.1160807668
0
LWPOLYLINE
5
139736281181520
330
1F
100
AcDbEntity
8
None
62
255
100
AcDbPolyline
90
37
70
1
43
0.0
10
-7.52796942666
20
-16.4387585706
10
-7.35143001451
20
-15.9791000378
10
-7.3372691955
20
-15.9422105093
10
-7.30932741061
20
-15.4111321399
10
-7.4468837998
20
-14.8973217322
10
-7.48869972926
20
-14.8328004165
10
-7.67206988657
20
-14.5504001747
10
-7.73646786662
20
-14.4511806174
10
-7.76761866885
20
-14.4259010745
10
-8.14974141696
20
-14.1164094335
10
-8.60934948285
20
-13.9399001985
10
-8.6462389955
20
-13.9257195528
10
-9.17736774439
20
-13.89781739
10
-9.28100965591
20
-13.9254999077
10
-9.69112766909
20
-14.0353136922
10
-9.7556990691
20
-14.0771993944
10
-9.93342400972
20
-14.1925569794
10
-10.1372210209
20
-14.324918809
10
-10.1373988695
20
-14.3250480392
10
-10.4719908892
20
-14.7382417197
10
-10.6485998865
20
-15.1977997046
10
-10.6627804453
20
-15.2346889906
10
-10.6628943933
20
-15.2351137543
10
-10.6906826105
20
-15.7658677236
10
-10.6630000406
20
-15.8694998485
10
-10.6218500163
20
-16.0230499391
10
-10.553086098
20
-16.2795788051
10
-10.3279000827
20
-16.6264998727
10
-10.2634811719
20
-16.7257209504
10
-9.85025854369
20
-17.0604906253
10
-9.39065051715
20
-17.2369998015
10
-9.3537610045
20
-17.2511804472
10
-8.82263196427
20
-17.2790826252
10
-8.30887142517
20
-17.1415860888
10
-7.86275932594
20
-16.8519814081
10
-7.8374003621
20
-16.8208004476
10
-7.52796942666
20
-16.4387585706
0
ENDSEC
0
SECTION
2
OBJECTS
0
DICTIONARY
5
C
100
AcDbDictionary
281
1
3
ACAD_GROUP
350
D
0
DICTIONARY
5
D
330
C
100
AcDbDictionary
281
1
0
ENDSEC
0
EOF