999
trimesh
0
SECTION
2
HEADER
9
$ACADVER
1
AC1014
9
$DWGCODEPAGE
3
ANSI_1252
9
$INSBASE
10
0
20
0
30
0
9
$EXTMIN
10
0.15
20
-104.996999095
30
0
9
$EXTMAX
10
104.99999968
20
104.99694788
30
0
9
$LIMMIN
10
0
20
0
9
$LIMMAX
10
12
20
9
9
$ORTHOMODE
70
0
9
$REGENMODE
70
1
9
$FILLMODE
70
1
9
$QTEXTMODE
70
0
9
$MIRRTEXT
70
1
9
$LTSCALE
40
1
9
$ATTMODE
70
1
9
$TEXTSIZE
40
0.2
9
$TRACEWID
40
0.05
9
$TEXTSTYLE
7
STANDARD
9
$CLAYER
8
0
9
$CELTYPE
6
BYBLOCK
9
$CECOLOR
62
256
9
$CELTSCALE
40
1
9
$DISPSILH
70
0
9
$DIMSCALE
40
1
9
$DIMASZ
40
0.18
9
$DIMEXO
40
0.0625
9
$DIMDLI
40
0.38
9
$DIMRND
40
0
9
$DIMDLE
40
0
9
$DIMEXE
40
0.18
9
$DIMTP
40
0
9
$DIMTM
40
0
9
$DIMTXT
40
0.18
9
$DIMCEN
40
0.09
9
$DIMTSZ
40
0
9
$DIMTOL
70
0
9
$DIMLIM
70
0
9
$DIMTIH
70
1
9
$DIMTOH
70
1
9
$DIMSE1
70
0
9
$DIMSE2
70
0
9
$DIMTAD
70
0
9
$DIMZIN
70
0
9
$DIMASO
70
1
9
$DIMSHO
70
1
9
$DIMALT
70
0
9
$DIMALTD
70
2
9
$DIMALTF
40
25.4
9
$DIMLFAC
40
1
9
$DIMTOFL
70
0
9
$DIMTVP
40
0
9
$DIMTIX
70
0
9
$DIMSOXD
70
0
9
$DIMSAH
70
0
9
$DIMSTYLE
2
STANDARD
9
$DIMCLRD
70
0
9
$DIMCLRE
70
0
9
$DIMCLRT
70
0
9
$DIMTFAC
40
1
9
$DIMGAP
40
0.09
9
$DIMJUST
70
0
9
$DIMSD1
70
0
9
$DIMSD2
70
0
9
$DIMTOLJ
70
1
9
$DIMTZIN
70
0
9
$DIMALTZ
70
0
9
$DIMALTTZ
70
0
9
$DIMUPT
70
0
9
$DIMDEC
70
4
9
$DIMTDEC
70
4
9
$DIMALTU
70
2
9
$DIMALTTD
70
2
9
$DIMTXSTY
7
STANDARD
9
$DIMAUNIT
70
0
9
$DIMADEC
70
0
9
$DIMALTRND
40
0
9
$DIMAZIN
70
0
9
$DIMDSEP
70
44
9
$DIMATFIT
70
3
9
$DIMFRAC
70
0
9
$DIMLDRBLK
1
STANDARD
9
$DIMUNIT
70
2
9
$DIMLWD
70
-2
9
$DIMLWE
70
-2
9
$DIMTMOVE
70
0
9
$LUNITS
70
1
9
$LUPREC
70
4
9
$SKETCHINC
40
0.1
9
$FILLETRAD
40
0.5
9
$AUNITS
70
0
9
$AUPREC
70
0
9
$MENU
1
.
9
$ELEVATION
40
0
9
$PELEVATION
40
0
9
$THICKNESS
40
0
9
$LIMCHECK
70
0
9
$BLIPMODE
70
0
9
$CHAMFERA
40
0
9
$CHAMFERB
40
0
9
$CHAMFERC
40
0
9
$CHAMFERD
40
0
9
$SKPOLY
70
0
9
$USRTIMER
70
1
9
$ANGBASE
50
0
9
$ANGDIR
70
0
9
$PDMODE
70
0
9
$PDSIZE
40
0
9
$PLINEWID
40
0
9
$SPLFRAME
70
0
9
$SPLINETYPE
70
6
9
$SPLINESEGS
70
8
9
$HANDSEED
5
20000
9
$SURFTAB1
70
6
9
$SURFTAB2
70
6
9
$SURFTYPE
70
6
9
$SURFU
70
6
9
$SURFV
70
6
9
$UCSORG
10
0
20
0
30
0
9
$UCSXDIR
10
1
20
0
30
0
9
$UCSYDIR
10
0
20
1
30
0
9
$UCSORTHOVIEW
70
0
9
$UCSORGTOP
10
0
20
0
30
0
9
$UCSORGBOTTOM
10
0
20
0
30
0
9
$UCSORGLEFT
10
0
20
0
30
0
9
$UCSORGRIGHT
10
0
20
0
30
0
9
$UCSORGFRONT
10
0
20
0
30
0
9
$UCSORGBACK
10
0
20
0
30
0
9
$PUCSORG
10
0
20
0
30
0
9
$PUCSXDIR
10
1
20
0
30
0
9
$PUCSYDIR
10
0
20
1
30
0
9
$PUCSORTHOVIEW
70
0
9
$PUCSORGTOP
10
0
20
0
30
0
9
$PUCSORGBOTTOM
10
0
20
0
30
0
9
$PUCSORGLEFT
10
0
20
0
30
0
9
$PUCSORGRIGHT
10
0
20
0
30
0
9
$PUCSORGFRONT
10
0
20
0
30
0
9
$PUCSORGBACK
10
0
20
0
30
0
9
$USERI1
70
0
9
$USERI2
70
0
9
$USERI3
70
0
9
$USERI4
70
0
9
$USERI5
70
0
9
$USERR1
40
0
9
$USERR2
40
0
9
$USERR3
40
0
9
$USERR4
40
0
9
$USERR5
40
0
9
$WORLDVIEW
70
1
9
$SHADEDGE
70
3
9
$SHADEDIF
70
70
9
$TILEMODE
70
1
9
$MAXACTVP
70
64
9
$PINSBASE
10
0
20
0
30
0
9
$PLIMCHECK
70
0
9
$PEXTMIN
10
1e+20
20
1e+20
30
1e+20
9
$PEXTMAX
10
-1e+20
20
-1e+20
30
-1e+20
9
$GRIDMODE
70
0
9
$SNAPSTYLE
70
0
9
$PLIMMIN
10
0
20
0
9
$PLIMMAX
10
0
20
0
9
$UNITMODE
70
0
9
$VISRETAIN
70
1
9
$PLINEGEN
70
0
9
$PSLTSCALE
70
1
9
$TREEDEPTH
70
3020
9
$CMLSTYLE
2
STANDARD
9
$CMLJUST
70
0
9
$CMLSCALE
40
1
9
$PROXYGRAPHICS
70
1
9
$MEASUREMENT
70
0
9
$CELWEIGHT
370
-1
9
$ENDCAPS
280
0
9
$JOINSTYLE
280
0
9
$LWDISPLAY
290
0
9
$XEDIT
290
1
9
$CEPSNTYPE
380
0
9
$PSTYLEMODE
290
1
9
$EXTNAMES
290
1
9
$PSVPSCALE
40
1
9
$OLESTARTUP
290
0
0
ENDSEC
0
SECTION
2
CLASSES
0
ENDSEC
0
SECTION
2
TABLES
0
TABLE
2
VPORT
5
8
100
AcDbSymbolTable
70
1
0
VPORT
5
31
330
2
100
AcDbSymbolTableRecord
100
AcDbViewportTableRecord
2
*ACTIVE
70
0
10
0
20
0
11
1
21
1
12
354.791887455375
22
270.82508654025
13
0
23
0
14
10
24
10
15
10
25
10
16
0
26
0
36
1
17
0
27
0
37
0
40
650.7886407907502
41
1.281197063805759
42
50
43
0
44
0
50
0
51
0
71
0
72
100
73
1
74
3
75
0
76
0
77
0
78
0
0
ENDTAB
0
TABLE
2
LTYPE
5
5
100
AcDbSymbolTable
70
4
0
LTYPE
5
14
100
AcDbSymbolTableRecord
100
AcDbLinetypeTableRecord
2
ByBlock
70
0
72
65
73
0
40
0
0
LTYPE
5
15
100
AcDbSymbolTableRecord
100
AcDbLinetypeTableRecord
2
ByLayer
70
0
72
65
73
0
40
0
0
LTYPE
5
16
100
AcDbSymbolTableRecord
100
AcDbLinetypeTableRecord
2
Continuous
70
0
3
Solid line
72
65
73
0
40
0
0
LTYPE
5
32
330
5
100
AcDbSymbolTableRecord
100
AcDbLinetypeTableRecord
2
DOT
70
0
3
Dot . . . . . . . . . . . . . . . . . . . . . .
72
65
73
2
40
6.35
49
0
74
0
49
-6.35
74
0
0
LTYPE
5
33
330
5
100
AcDbSymbolTableRecord
100
AcDbLinetypeTableRecord
2
DOTTINY
70
0
3
Dot (.15x) .....................................
72
65
73
2
40
0.9525
49
0
74
0
49
-0.9525
74
0
0
LTYPE
5
34
330
5
100
AcDbSymbolTableRecord
100
AcDbLinetypeTableRecord
2
DOT2
70
0
3
Dot (.5x) .....................................
72
65
73
2
40
3.175
49
0
74
0
49
-3.175
74
0
0
LTYPE
5
35
330
5
100
AcDbSymbolTableRecord
100
AcDbLinetypeTableRecord
2
DOTX2
70
0
3
Dot (2x) .  .  .  .  .  .  .  .  .  .  .  .  .
72
65
73
2
40
12.7
49
0
74
0
49
-12.7
74
0
0
LTYPE
5
36
330
5
100
AcDbSymbolTableRecord
100
AcDbLinetypeTableRecord
2
DASHED
70
0
3
Dashed _ _ _ _ _ _ _ _ _ _ _ _ _ _ _ _ _
72
65
73
2
40
19.05
49
12.7
74
0
49
-6.35
74
0
0
LTYPE
5
37
330
5
100
AcDbSymbolTableRecord
100
AcDbLinetypeTableRecord
2
DASHEDTINY
70
0
3
Dashed (.15x) _ _ _ _ _ _ _ _ _ _ _ _ _ _ _ _ _
72
65
73
2
40
2.8575
49
1.905
74
0
49
-0.9525
74
0
0
LTYPE
5
38
330
5
100
AcDbSymbolTableRecord
100
AcDbLinetypeTableRecord
2
DASHED2
70
0
3
Dashed (.5x) _ _ _ _ _ _ _ _ _ _ _ _ _ _ _ _ _
72
65
73
2
40
9.524999999999999
49
6.35
74
0
49
-3.175
74
0
0
LTYPE
5
39
330
5
100
AcDbSymbolTableRecord
100
AcDbLinetypeTableRecord
2
DASHEDX2
70
0
3
Dashed (2x) ____  ____  ____  ____  ____  ___
72
65
73
2
40
38.09999999999999
49
25.4
74
0
49
-12.7
74
0
0
LTYPE
5
3A
330
5
100
AcDbSymbolTableRecord
100
AcDbLinetypeTableRecord
2
DASHDOT
70
0
3
Dash dot __ . __ . __ . __ . __ . __ . __ . __
72
65
73
4
40
25.4
49
12.7
74
0
49
-6.35
74
0
49
0
74
0
49
-6.35
74
0
0
LTYPE
5
3B
330
5
100
AcDbSymbolTableRecord
100
AcDbLinetypeTableRecord
2
DASHDOTTINY
70
0
3
Dash dot (.15x) _._._._._._._._._._._._._._._.
72
65
73
4
40
3.81
49
1.905
74
0
49
-0.9525
74
0
49
0
74
0
49
-0.9525
74
0
0
LTYPE
5
3C
330
5
100
AcDbSymbolTableRecord
100
AcDbLinetypeTableRecord
2
DASHDOT2
70
0
3
Dash dot (.5x) _._._._._._._._._._._._._._._.
72
65
73
4
40
12.7
49
6.35
74
0
49
-3.175
74
0
49
0
74
0
49
-3.175
74
0
0
LTYPE
5
3D
330
5
100
AcDbSymbolTableRecord
100
AcDbLinetypeTableRecord
2
DASHDOTX2
70
0
3
Dash dot (2x) ____  .  ____  .  ____  .  ___
72
65
73
4
40
50.8
49
25.4
74
0
49
-12.7
74
0
49
0
74
0
49
-12.7
74
0
0
LTYPE
5
3E
330
5
100
AcDbSymbolTableRecord
100
AcDbLinetypeTableRecord
2
DIVIDE
70
0
3
Divide ____ . . ____ . . ____ . . ____ . . ____
72
65
73
6
40
31.75
49
12.7
74
0
49
-6.35
74
0
49
0
74
0
49
-6.35
74
0
49
0
74
0
49
-6.35
74
0
0
LTYPE
5
3F
330
5
100
AcDbSymbolTableRecord
100
AcDbLinetypeTableRecord
2
DIVIDETINY
70
0
3
Divide (.15x) __..__..__..__..__..__..__..__.._
72
65
73
6
40
4.7625
49
1.905
74
0
49
-0.9525
74
0
49
0
74
0
49
-0.9525
74
0
49
0
74
0
49
-0.9525
74
0
0
LTYPE
5
40
330
5
100
AcDbSymbolTableRecord
100
AcDbLinetypeTableRecord
2
DIVIDE2
70
0
3
Divide (.5x) __..__..__..__..__..__..__..__.._
72
65
73
6
40
15.875
49
6.35
74
0
49
-3.175
74
0
49
0
74
0
49
-3.175
74
0
49
0
74
0
49
-3.175
74
0
0
LTYPE
5
41
330
5
100
AcDbSymbolTableRecord
100
AcDbLinetypeTableRecord
2
DIVIDEX2
70
0
3
Divide (2x) ________  .  .  ________  .  .  _
72
65
73
6
40
63.5
49
25.4
74
0
49
-12.7
74
0
49
0
74
0
49
-12.7
74
0
49
0
74
0
49
-12.7
74
0
0
LTYPE
5
42
330
5
100
AcDbSymbolTableRecord
100
AcDbLinetypeTableRecord
2
BORDER
70
0
3
Border __ __ . __ __ . __ __ . __ __ . __ __ .
72
65
73
6
40
44.45
49
12.7
74
0
49
-6.35
74
0
49
12.7
74
0
49
-6.35
74
0
49
0
74
0
49
-6.35
74
0
0
LTYPE
5
43
330
5
100
AcDbSymbolTableRecord
100
AcDbLinetypeTableRecord
2
BORDERTINY
70
0
3
Border (.15x) __.__.__.__.__.__.__.__.__.__.__.
72
65
73
6
40
6.6675
49
1.905
74
0
49
-0.9525
74
0
49
1.905
74
0
49
-0.9525
74
0
49
0
74
0
49
-0.9525
74
0
0
LTYPE
5
44
330
5
100
AcDbSymbolTableRecord
100
AcDbLinetypeTableRecord
2
BORDER2
70
0
3
Border (.5x) __.__.__.__.__.__.__.__.__.__.__.
72
65
73
6
40
22.225
49
6.35
74
0
49
-3.175
74
0
49
6.35
74
0
49
-3.175
74
0
49
0
74
0
49
-3.175
74
0
0
LTYPE
5
45
330
5
100
AcDbSymbolTableRecord
100
AcDbLinetypeTableRecord
2
BORDERX2
70
0
3
Border (2x) ____  ____  .  ____  ____  .  ___
72
65
73
6
40
88.89999999999999
49
25.4
74
0
49
-12.7
74
0
49
25.4
74
0
49
-12.7
74
0
49
0
74
0
49
-12.7
74
0
0
LTYPE
5
46
330
5
100
AcDbSymbolTableRecord
100
AcDbLinetypeTableRecord
2
CENTER
70
0
3
Center ____ _ ____ _ ____ _ ____ _ ____ _ ____
72
65
73
4
40
50.8
49
31.75
74
0
49
-6.35
74
0
49
6.35
74
0
49
-6.35
74
0
0
LTYPE
5
47
330
5
100
AcDbSymbolTableRecord
100
AcDbLinetypeTableRecord
2
CENTERTINY
70
0
3
Center (.15x) ___ _ ___ _ ___ _ ___ _ ___ _ ___
72
65
73
4
40
7.619999999999999
49
4.7625
74
0
49
-0.9525
74
0
49
0.9525
74
0
49
-0.9525
74
0
0
LTYPE
5
48
330
5
100
AcDbSymbolTableRecord
100
AcDbLinetypeTableRecord
2
CENTER2
70
0
3
Center (.5x) ___ _ ___ _ ___ _ ___ _ ___ _ ___
72
65
73
4
40
28.575
49
19.05
74
0
49
-3.175
74
0
49
3.175
74
0
49
-3.175
74
0
0
LTYPE
5
49
330
5
100
AcDbSymbolTableRecord
100
AcDbLinetypeTableRecord
2
CENTERX2
70
0
3
Center (2x) ________  __  ________  __  _____
72
65
73
4
40
101.6
49
63.5
74
0
49
-12.7
74
0
49
12.7
74
0
49
-12.7
74
0
0
ENDTAB
0
TABLE
2
LAYER
5
2
100
AcDbSymbolTable
70
1
0
LAYER
5
10
330
2
100
AcDbSymbolTableRecord
100
AcDbLayerTableRecord
2
0
70
0
62
7
6
CONTINUOUS
370
0
390
F
0
LAYER
5
4A
330
2
100
AcDbSymbolTableRecord
100
AcDbLayerTableRecord
2
None
70
0
62
7
6
CONTINUOUS
370
-3
390
F
0
ENDTAB
0
TABLE
2
STYLE
5
3
100
AcDbSymbolTable
70
3
0
STYLE
5
4B
330
2
100
AcDbSymbolTableRecord
100
AcDbTextStyleTableRecord
2
Standard
70
0
40
0
41
1
50
0
71
0
42
1
3
txt
0
ENDTAB
0
TABLE
2
VIEW
5
6
100
AcDbSymbolTable
70
0
0
ENDTAB
0
TABLE
2
UCS
5
7
100
AcDbSymbolTable
70
0
0
ENDTAB
0
TABLE
2
APPID
5
9
100
AcDbSymbolTable
70
1
0
APPID
5
12
100
AcDbSymbolTableRecord
100
AcDbRegAppTableRecord
2
ACAD
70
0
0
APPID
5
4C
100
AcDbSymbolTableRecord
100
AcDbRegAppTableRecord
2
LibreCad
70
0
0
ENDTAB
0
TABLE
2
DIMSTYLE
5
A
100
AcDbSymbolTable
70
1
0
DIMSTYLE
105
4D
330
A
100
AcDbSymbolTableRecord
100
AcDbDimStyleTableRecord
2
Standard
70
0
40
1
41
0.18
42
0.0625
43
0.38
44
0.18
45
0
46
0
47
0
48
0
49
1
140
0.18
141
0.09
142
0
143
25.4
144
1
145
0
146
1
147
0.09
71
0
72
0
73
1
74
1
75
0
76
0
77
0
78
0
170
0
171
2
172
0
173
0
174
0
175
0
176
0
177
0
178
0
270
2
271
4
272
4
273
2
274
2
275
0
280
0
281
0
282
0
283
1
284
0
285
0
286
0
287
3
288
0
340
STANDARD
0
ENDTAB
0
TABLE
2
BLOCK_RECORD
5
1
100
AcDbSymbolTable
70
2
0
BLOCK_RECORD
5
1F
100
AcDbSymbolTableRecord
100
AcDbBlockTableRecord
2
*Model_Space
0
BLOCK_RECORD
5
1E
100
AcDbSymbolTableRecord
100
AcDbBlockTableRecord
2
*Paper_Space
0
ENDTAB
0
ENDSEC
0
SECTION
2
BLOCKS
0
BLOCK
5
20
100
AcDbEntity
8
0
100
AcDbBlockBegin
2
*Model_Space
70
0
10
0
20
0
30
0
3
*Model_Space
0
ENDBLK
5
21
100
AcDbEntity
8
0
100
AcDbBlockEnd
0
BLOCK
5
1C
100
AcDbEntity
8
0
100
AcDbBlockBegin
2
*Paper_Space
70
0
10
0
20
0
30
0
3
*Paper_Space
0
ENDBLK
5
1D
100
AcDbEntity
8
0
100
AcDbBlockEnd
0
ENDSEC
0
SECTION
2
ENTITIES
0
LWPOLYLINE
5
139736281181392
330
1F
100
AcDbEntity
8
None
62
255
100
AcDbPolyline
90
109
70
1
43
0.0
10
0.150002413931
20
-11.2000024139
10
6.46510759504
20
-11.2
10
12.9319938066
20
-0.00104996476157
10
6.46692619945
20
11.1989500248
10
0.150051550633
20
11.2
10
0.15
20
104.99694788
10
3.66443159838
20
104.936000319
10
7.32441178709
20
104.744000955
10
10.9754816338
20
104.425001605
10
10.9755182985
20
104.424997751
10
14.613181907
20
103.978002223
10
18.2330817557
20
103.405002888
10
18.2331181315
20
103.404996472
10
21.8306821698
20
102.705003469
10
21.8307176995
20
102.704995916
10
25.4017820232
20
101.881004148
10
28.9418824172
20
100.932004713
10
32.4467824143
20
99.8609053742
10
35.9120826764
20
98.667705965
10
39.3336828886
20
97.3543065683
10
42.707283134
20
95.9223071592
10
46.0289833818
20
94.373407749
10
49.2944836809
20
92.7095083152
10
52.499983968
20
90.9327088865
10
55.641484286
20
89.0451094419
10
58.7152846421
20
87.0489099738
10
61.7174849777
20
84.9468105184
10
64.6444853711
20
82.7411110239
10
67.4926857513
20
80.4347115383
10
70.2586861748
20
78.0302120183
10
72.9390865962
20
75.5307124992
10
75.5306870406
20
72.9391129594
10
78.0301875067
20
70.2587133975
10
80.4346879713
20
67.4927138372
10
82.7410884725
20
64.6445142354
10
84.9467889633
20
61.7175146458
10
87.0488894967
20
58.7153150008
10
89.0450900152
20
55.6415153748
10
90.9326905593
20
52.500015712
10
92.7094911206
20
49.2945160192
10
94.3733916754
20
46.0290163374
10
95.9222922567
20
42.7073166059
10
97.3542928384
20
39.3337168717
10
98.6676934342
20
35.9121171049
10
99.8608940133
20
32.4468173867
10
100.93199468
20
28.9419174088
10
101.880995223
20
25.4018178199
10
102.704995916
20
21.8307176995
10
102.705003469
20
21.8306821698
10
103.404996472
20
18.2331181315
10
103.405002888
20
18.2330817557
10
103.97799715
20
14.6132180049
10
104.424997751
20
10.9755182985
10
104.425001605
20
10.9754816338
10
104.743998413
20
7.32444816874
10
104.935999039
20
3.66446832241
10
104.99999968
20
1.83336404739e-05
10
104.93600032
20
-3.66443165519
10
104.744000955
20
-7.32441178709
10
104.425001605
20
-10.9754816338
10
104.424997751
20
-10.9755182985
10
103.978002223
20
-14.613181907
10
103.405002888
20
-18.2330817557
10
103.404996472
20
-18.2331181315
10
102.705003469
20
-21.8306821698
10
102.704995916
20
-21.8307176995
10
101.881004148
20
-25.4017820232
10
100.932004713
20
-28.9418824172
10
99.8609053742
20
-32.4467824143
10
98.667705965
20
-35.9120826764
10
97.3543065683
20
-39.3336828886
10
95.9223071592
20
-42.707283134
10
94.373407749
20
-46.0289833818
10
92.7095083152
20
-49.2944836809
10
90.9327088865
20
-52.499983968
10
89.0451094419
20
-55.641484286
10
87.0489099738
20
-58.7152846421
10
84.9468105184
20
-61.7174849777
10
82.7411110239
20
-64.6444853711
10
80.4347115383
20
-67.4926857513
10
78.0302120183
20
-70.2586861748
10
75.5307124992
20
-72.9390865962
10
72.9391129594
20
-75.5306870406
10
70.2587133975
20
-78.0301875067
10
67.4927138372
20
-80.4346879713
10
64.6445142354
20
-82.7410884725
10
61.7175146458
20
-84.9467889633
10
58.7153150008
20
-87.0488894967
10
55.6415153748
20
-89.0450900152
10
52.500015712
20
-90.9326905593
10
49.2945160192
20
-92.7094911206
10
46.0290163374
20
-94.3733916754
10
42.7073166059
20
-95.9222922567
10
39.3337168717
20
-97.3542928384
10
35.9121171049
20
-98.6676934342
10
32.4468173867
20
-99.8608940133
10
28.9419174088
20
-100.93199468
10
25.4018178199
20
-101.880995223
10
21.8307176995
20
-102.704995916
10
21.8306821698
20
-102.705003469
10
18.2331181315
20
-103.404996472
10
18.2330817557
20
-103.405002888
10
14.6132180049
20
-103.97799715
10
10.9755182985
20
-104.424997751
10
10.9754816338
20
-104.425001605
10
7.32444816874
20
-104.743998413
10
3.66446837912
20
-104.935999036
10
0.150052112582
20
-104.996999095
10
0.150002413931
20
-11.2000024139
0
LWPOLYLINE
5
139736281181968
330
1F
100
AcDbEntity
8
None
62
255
100
AcDbPolyline
90
33
70
1
43
0.0
10
18.0003285055
20
1.69994796943
10
17.4750285121
20
1.61685203162
10
17.4748135049
20
1.61680632982
10
17.0010963308
20
1.37548099176
10
16.624935145
20
0.999469142464
10
16.383351454
20
0.525626204254
10
16.3831480973
20
0.524999493091
10
16.3770001483
20
0.485968941417
10
16.3000520701
20
0.000328628849048
10
16.3769998509
20
-0.485967058737
10
16.3831480973
20
-0.524999493137
10
16.3831937783
20
-0.525215143775
10
16.6245490119
20
-0.998937710067
10
17.0005648281
20
-1.37509483063
10
17.4744036464
20
-1.6166489966
10
17.4750285121
20
-1.61685203162
10
17.9996714945
20
-1.69994796943
10
18.5249714879
20
-1.61685203162
10
18.5251864951
20
-1.61680632982
10
18.9989036692
20
-1.37548099176
10
19.375064855
20
-0.999469142464
10
19.616648546
20
-0.525626204254
10
19.6168519027
20
-0.524999493091
10
19.6229998517
20
-0.485968941417
10
19.6999479299
20
-0.000328628849048
10
19.6230001491
20
0.485967058737
10
19.6168519027
20
0.524999493137
10
19.6168062217
20
0.525215143775
10
19.3754509881
20
0.998937710067
10
18.9994351719
20
1.37509483063
10
18.5255963536
20
1.6166489966
10
18.5249714879
20
1.61685203162
10
18.0003285055
20
1.69994796943
0
ENDSEC
0
SECTION
2
OBJECTS
0
DICTIONARY
5
C
100
AcDbDictionary
281
1
3
ACAD_GROUP
350
D
0
DICTIONARY
5
D
330
C
100
AcDbDictionary
281
1
0
ENDSEC
0
EOF